<svg xmlns="http://www.w3.org/2000/svg" width="900" height="900" viewBox="0 0 900 900">
  <!-- rounded square background -->
  <rect x="0" y="0" width="900" height="900" rx="180" ry="180" fill="#006CB8"/>
  
  <!-- logo (white) -->
  <path d="M 289.50 777.55 C280.05,778.86 266.14,779.20 259.50,778.29 C254.00,777.53 243.27,774.01 238.73,771.47 C228.78,765.91 220.42,756.16 215.94,744.89 C211.06,732.63 210.57,729.38 210.57,709.50 C210.57,692.93 210.84,689.67 212.67,684.00 C214.93,677.03 217.25,669.23 222.50,651.00 C232.26,617.12 240.09,590.15 240.95,587.50 C242.20,583.62 256.95,533.44 257.99,529.50 C258.43,527.85 260.46,520.88 262.50,514.00 C264.54,507.12 266.43,500.60 266.71,499.50 C267.27,497.23 273.02,477.79 276.02,468.00 C277.11,464.42 278.88,458.35 279.95,454.50 C281.99,447.12 285.91,433.61 293.42,408.00 C298.94,389.20 299.33,382.82 295.41,375.40 C291.65,368.28 289.42,366.27 280.50,361.97 C272.96,358.33 263.31,355.89 250.62,354.41 L 245.74 353.84 L 246.40 348.24 C246.76,345.15 247.53,342.06 248.11,341.36 C248.69,340.67 251.26,339.81 253.83,339.47 C256.40,339.12 262.10,338.20 266.50,337.43 C270.90,336.65 282.60,334.85 292.50,333.43 C302.40,332.01 312.98,330.47 316.00,330.00 C319.02,329.54 329.38,327.97 339.00,326.51 C348.62,325.06 359.20,323.44 362.50,322.92 C374.27,321.08 382.59,319.83 388.50,319.01 C395.77,318.01 405.16,316.59 418.50,314.45 C433.53,312.05 441.07,311.30 441.59,312.14 C442.16,313.06 433.47,348.06 425.00,379.00 C421.61,391.38 418.23,403.75 417.49,406.50 C416.76,409.25 412.48,424.10 407.99,439.50 C398.61,471.68 396.99,477.16 385.68,515.00 C384.29,519.67 381.72,528.00 379.97,533.50 C378.23,539.00 376.22,545.53 375.51,548.00 C373.59,554.66 366.62,577.19 360.50,596.50 C337.18,670.10 331.38,704.49 340.66,714.17 C342.29,715.87 344.42,717.00 346.00,717.00 C349.68,717.00 359.03,711.11 367.77,703.29 C379.23,693.03 404.77,663.25 415.42,647.71 C417.57,644.57 420.01,642.00 420.84,642.00 C423.28,642.00 433.98,649.36 433.99,651.05 C434.00,652.74 425.58,666.75 415.82,681.29 C391.72,717.17 360.78,748.78 335.50,763.33 C321.93,771.14 310.67,774.62 289.50,777.55 ZM 534.50 772.67 C525.19,774.47 486.89,775.35 477.50,773.98 C445.32,769.29 426.26,754.91 425.18,734.49 C424.32,718.36 432.33,705.11 445.43,700.97 C450.79,699.28 464.66,700.30 473.50,703.04 C488.13,707.59 510.77,719.84 525.79,731.34 C527.83,732.90 533.33,736.05 538.00,738.34 C546.42,742.46 546.60,742.50 557.50,742.47 C568.07,742.44 568.75,742.31 574.80,739.05 C583.27,734.50 594.21,722.78 599.66,712.41 C613.21,686.65 619.72,642.10 614.13,613.50 C608.25,583.43 594.95,560.90 573.00,543.82 C557.79,531.99 534.03,523.85 508.50,521.75 C506.11,521.55 505.44,520.98 505.20,518.94 C505.04,517.53 505.35,515.20 505.90,513.76 C506.72,511.60 507.74,511.02 511.70,510.47 C515.73,509.90 540.06,503.99 550.50,501.04 C555.57,499.60 572.05,493.39 581.00,489.54 C617.71,473.74 643.96,449.42 652.14,423.62 C654.04,417.62 654.39,414.38 654.33,403.00 C654.22,382.32 651.06,373.05 640.51,362.46 C629.88,351.77 619.58,348.53 598.38,349.20 C587.60,349.54 584.21,350.06 577.55,352.37 C558.65,358.92 544.87,368.43 539.00,378.99 C534.89,386.39 531.75,390.00 529.41,390.00 C527.19,390.00 521.00,383.36 521.00,380.98 C521.00,378.93 528.11,369.13 536.89,359.09 C555.03,338.34 583.03,319.32 605.00,312.83 C628.94,305.76 656.42,306.53 679.50,314.94 C710.31,326.16 730.23,346.38 736.12,372.40 C744.71,410.38 722.56,450.99 679.23,476.71 C667.77,483.51 650.77,490.35 635.62,494.24 C632.93,494.94 630.68,495.95 630.62,496.49 C630.55,497.04 633.88,499.30 638.00,501.51 C667.15,517.14 686.52,540.20 694.70,569.00 C700.33,588.79 698.47,622.89 690.37,648.50 C678.44,686.24 656.30,715.05 621.50,738.13 C595.76,755.19 568.05,766.19 534.50,772.67 ZM 431.49 227.00 C400.65,234.89 367.80,219.03 352.45,188.83 C347.05,178.21 344.50,167.29 344.55,155.00 C344.61,142.55 346.55,134.10 352.12,122.09 C360.11,104.86 373.31,92.89 392.75,85.26 C398.92,82.84 400.75,82.61 414.00,82.56 C426.35,82.51 429.46,82.82 435.00,84.68 C452.85,90.68 468.99,104.41 476.77,120.21 C483.34,133.55 485.30,142.85 484.73,158.00 C484.24,171.28 482.63,177.92 477.24,188.94 C468.38,207.06 450.14,222.23 431.49,227.00 Z"
        fill="#FFFFFF"/>
</svg>