<svg width="24" height="24" viewBox="0 0 24 24" fill="none" xmlns="http://www.w3.org/2000/svg">
<g clip-path="url(#clip0_1201_2870)">
<path d="M12 24C18.6274 24 24 18.6274 24 12C24 5.37258 18.6274 0 12 0C5.37258 0 0 5.37258 0 12C0 18.6274 5.37258 24 12 24Z" fill="#F0F0F0"/>
<path d="M6.78223 16.1729L7.82571 23.2527C9.12565 23.7351 10.5318 23.999 11.9996 23.999C17.1591 23.999 21.5577 20.7425 23.2532 16.1729H6.78223Z" fill="black"/>
<path d="M6.78223 7.82661L7.82571 0.7468C9.12565 0.26441 10.5318 0.00050354 11.9996 0.00050354C17.1591 0.00050354 21.5577 3.257 23.2532 7.82661H6.78223Z" fill="#6DA544"/>
<path d="M0 12C0 17.1596 3.25655 21.5581 7.82611 23.2536V0.746384C3.25655 2.4419 0 6.84042 0 12Z" fill="#A2001D"/>
</g>
<defs>
<clipPath id="clip0_1201_2870">
<rect width="24" height="24" fill="white"/>
</clipPath>
</defs>
</svg>
