<svg width="24" height="24" viewBox="0 0 24 24" fill="none" xmlns="http://www.w3.org/2000/svg">
<g clip-path="url(#clip0_1201_1067)">
<path d="M17.2175 1.19072C15.6399 0.427875 13.87 0 12.0001 0C10.1303 0 8.36037 0.427875 6.78274 1.19072L5.73926 12L6.78274 22.8093C8.36037 23.5721 10.1303 24 12.0001 24C13.87 24 15.6399 23.5721 17.2175 22.8093L18.261 12L17.2175 1.19072Z" fill="#D80027"/>
<path d="M6.78262 1.19131C2.76872 3.13227 0 7.24269 0 12.0002C0 16.7577 2.76872 20.8681 6.78262 22.809V1.19131Z" fill="black"/>
<path d="M17.2178 1.19131V22.809C21.2317 20.8681 24.0004 16.7577 24.0004 12.0002C24.0004 7.24269 21.2317 3.13227 17.2178 1.19131Z" fill="#496E2D"/>
<path d="M12.0001 7.82675C9.69484 7.82675 7.82617 9.69547 7.82617 12.0006C7.82617 14.3058 9.69489 16.1745 12.0001 16.1745C14.3052 16.1745 16.174 14.3058 16.174 12.0006C16.174 9.69547 14.3053 7.82675 12.0001 7.82675ZM12.0001 14.6093C10.5593 14.6093 9.39138 13.4413 9.39138 12.0006C9.39138 10.5599 10.5594 9.39196 12.0001 9.39196C13.4408 9.39196 14.6088 10.5599 14.6088 12.0006C14.6088 13.4413 13.4408 14.6093 12.0001 14.6093Z" fill="#FFDA44"/>
<path d="M12.0005 10.4363C11.4242 10.4363 10.957 10.9034 10.957 11.4798V13.045H13.044V11.4798C13.044 10.9034 12.5768 10.4363 12.0005 10.4363Z" fill="#FFDA44"/>
</g>
<defs>
<clipPath id="clip0_1201_1067">
<rect width="24" height="24" fill="white"/>
</clipPath>
</defs>
</svg>
