<svg width="24" height="24" viewBox="0 0 24 24" fill="none" xmlns="http://www.w3.org/2000/svg">
<g clip-path="url(#clip0_1201_1147)">
<path d="M12 24C18.6274 24 24 18.6274 24 12C24 5.37258 18.6274 0 12 0C5.37258 0 0 5.37258 0 12C0 18.6274 5.37258 24 12 24Z" fill="#FFDA44"/>
<path d="M11.9999 24.0002C15.637 24.0002 18.8959 22.3819 21.0965 19.8264H2.90332C5.10396 22.3819 8.36285 24.0002 11.9999 24.0002Z" fill="#338AF3"/>
<path d="M24 12C24 5.37263 18.6274 0 12 0C5.37262 0 0 5.37263 0 12C0 13.0831 0.144375 14.1323 0.413391 15.1305H23.5867C23.8556 14.1323 24 13.0831 24 12Z" fill="#338AF3"/>
<path d="M0.954102 16.6962C1.18543 17.2398 1.45585 17.7625 1.76152 18.2614H22.239C22.5446 17.7625 22.8151 17.2397 23.0465 16.6962H0.954102Z" fill="#338AF3"/>
<path d="M5.4988 7.56906L3.1543 6.53434L5.4988 5.49962L6.53347 3.15517L7.56814 5.49962L9.9126 6.53434L7.56814 7.56906L6.53347 9.91351L5.4988 7.56906Z" fill="#F0F0F0"/>
<path d="M6.53326 4.44734L7.17221 5.89527L8.62018 6.53431L7.17221 7.17331L6.53326 8.62124L5.89421 7.17331L4.44629 6.53431L5.89421 5.89527L6.53326 4.44734Z" fill="#D80027"/>
</g>
<defs>
<clipPath id="clip0_1201_1147">
<rect width="24" height="24" fill="white"/>
</clipPath>
</defs>
</svg>
