<svg width="24" height="24" viewBox="0 0 24 24" fill="none" xmlns="http://www.w3.org/2000/svg">
<g clip-path="url(#clip0_1201_1176)">
<path d="M24 12C24 10.5322 23.736 9.12608 23.2536 7.82615L12 7.30438L0.746391 7.8261C0.264047 9.12608 0 10.5322 0 12C0 13.4679 0.264047 14.874 0.746391 16.1739L12 16.6957L23.2536 16.174C23.736 14.874 24 13.4679 24 12Z" fill="#D80027"/>
<path d="M12.0007 23.9995C17.1603 23.9995 21.5588 20.743 23.2543 16.1734H0.74707C2.44259 20.743 6.8411 23.9995 12.0007 23.9995Z" fill="#6DA544"/>
<path d="M0.74707 7.82518H23.2543C21.5588 3.25557 17.1603 -0.000930786 12.0007 -0.000930786C6.8411 -0.000930786 2.44259 3.25557 0.74707 7.82518Z" fill="#338AF3"/>
<path d="M12.2605 15.3911C10.3875 15.3911 8.86915 13.8727 8.86915 11.9998C8.86915 10.1268 10.3875 8.60845 12.2605 8.60845C12.8444 8.60845 13.3939 8.7561 13.8737 9.01607C13.121 8.28009 12.0918 7.82582 10.9561 7.82582C8.6509 7.82582 6.78223 9.69454 6.78223 11.9997C6.78223 14.3049 8.65094 16.1736 10.9561 16.1736C12.0919 16.1736 13.1211 15.7193 13.8737 14.9834C13.3939 15.2434 12.8444 15.3911 12.2605 15.3911Z" fill="#F0F0F0"/>
<path d="M14.8693 9.6508L15.3185 10.9141L16.5295 10.3384L15.9538 11.5494L17.2171 11.9986L15.9538 12.4479L16.5295 13.6588L15.3185 13.0831L14.8693 14.3465L14.4202 13.0831L13.2091 13.6588L13.7849 12.4479L12.5215 11.9986L13.7849 11.5494L13.2091 10.3384L14.4202 10.9141L14.8693 9.6508Z" fill="#F0F0F0"/>
</g>
<defs>
<clipPath id="clip0_1201_1176">
<rect width="24" height="24" fill="white"/>
</clipPath>
</defs>
</svg>
