<svg width="24" height="24" viewBox="0 0 24 24" fill="none" xmlns="http://www.w3.org/2000/svg">
<g clip-path="url(#clip0_1201_1195)">
<path d="M17.2175 1.19088C15.6399 0.428035 13.87 0.000160217 12.0001 0.000160217C10.1303 0.000160217 8.36037 0.428035 6.78274 1.19088L5.73926 12.0002L6.78274 22.8094C8.36037 23.5723 10.1303 24.0002 12.0001 24.0002C13.87 24.0002 15.6399 23.5723 17.2175 22.8094L18.261 12.0002L17.2175 1.19088Z" fill="#FFDA44"/>
<path d="M6.78262 1.19128C2.76872 3.13219 0 7.24261 0 12.0001C0 16.7577 2.76872 20.8681 6.78262 22.809V1.19128Z" fill="#0052B4"/>
<path d="M17.2178 1.1917V22.8094C21.2317 20.8685 24.0004 16.758 24.0004 12.0006C24.0004 7.24308 21.2317 3.13261 17.2178 1.1917Z" fill="#0052B4"/>
<path d="M15.6518 7.30336L16.3518 7.65333L15.6518 7.30336L14.9518 6.95339C14.9096 7.03781 13.9956 8.89748 13.8463 11.7382H12.7822V7.30336L11.9996 6.25987L11.217 7.30336V11.7382H10.153C10.0036 8.89748 9.08966 7.03781 9.04743 6.95339L7.64746 7.65337C7.65712 7.67259 8.60835 9.60876 8.60835 12.5208V13.3034H11.217V17.7382H12.7822V13.3034H15.3909V12.5207C15.3909 11.0152 15.6514 9.77376 15.87 8.99742C16.1083 8.15086 16.3503 7.65647 16.3527 7.65154L15.6518 7.30336Z" fill="black"/>
</g>
<defs>
<clipPath id="clip0_1201_1195">
<rect width="24" height="24" fill="white"/>
</clipPath>
</defs>
</svg>
