<svg width="24" height="24" viewBox="0 0 24 24" fill="none" xmlns="http://www.w3.org/2000/svg">
<g clip-path="url(#clip0_1201_1212)">
<path d="M16.1735 0.746551C14.8735 0.264207 13.4675 0.000160217 11.9996 0.000160217C10.5318 0.000160217 9.1257 0.264207 7.82571 0.746551L6.78223 12.0002L7.82571 23.2538C9.1257 23.7362 10.5318 24.0002 11.9996 24.0002C13.4675 24.0002 14.8735 23.7362 16.1735 23.2538L17.217 12.0002L16.1735 0.746551Z" fill="#FFDA44"/>
<path d="M23.9999 11.9993C23.9999 6.83976 20.7434 2.4412 16.1738 0.745728V23.253C20.7434 21.5574 23.9999 17.1589 23.9999 11.9993Z" fill="#D80027"/>
<path d="M0 12C0 17.1596 3.2565 21.5581 7.82611 23.2536V0.746422C3.2565 2.44189 0 6.84045 0 12Z" fill="black"/>
</g>
<defs>
<clipPath id="clip0_1201_1212">
<rect width="24" height="24" fill="white"/>
</clipPath>
</defs>
</svg>
