<svg width="24" height="24" viewBox="0 0 24 24" fill="none" xmlns="http://www.w3.org/2000/svg">
<g clip-path="url(#clip0_1201_1462)">
<path d="M12 24C18.6274 24 24 18.6274 24 12C24 5.37258 18.6274 0 12 0C5.37258 0 0 5.37258 0 12C0 18.6274 5.37258 24 12 24Z" fill="#F0F0F0"/>
<path d="M24.0004 12.0011C24.0004 7.24352 21.2317 3.13277 17.2178 1.19177V22.8103C21.2317 20.8693 24.0004 16.7586 24.0004 12.0011Z" fill="#D80027"/>
<path d="M0 12.0004C0 16.7579 2.76867 20.8687 6.78262 22.8097V1.19112C2.76867 3.13212 0 7.24287 0 12.0004Z" fill="#D80027"/>
<path d="M14.087 13.5662L16.174 12.5227L15.1305 12.001V10.9575L13.0435 12.001L14.087 9.91403H13.0435L12.0001 8.34883L10.9566 9.91403H9.91309L10.9566 12.001L8.86961 10.9575V12.001L7.82617 12.5227L9.91309 13.5662L9.39138 14.6097H11.4783V16.1749H12.5218V14.6097H14.6088L14.087 13.5662Z" fill="#D80027"/>
</g>
<defs>
<clipPath id="clip0_1201_1462">
<rect width="24" height="24" fill="white"/>
</clipPath>
</defs>
</svg>
