<svg width="24" height="24" viewBox="0 0 24 24" fill="none" xmlns="http://www.w3.org/2000/svg">
<g clip-path="url(#clip0_1201_1531)">
<path d="M12 24C18.6274 24 24 18.6274 24 12C24 5.37258 18.6274 0 12 0C5.37258 0 0 5.37258 0 12C0 18.6274 5.37258 24 12 24Z" fill="#6DA544"/>
<path d="M18.4209 17.2178L18.7502 17.9063L19.4938 17.7345L19.1608 18.4212L19.7588 18.8954L19.0142 19.0632L19.0163 19.8265L18.4209 19.349L17.8255 19.8265L17.8275 19.0632L17.083 18.8954L17.681 18.4212L17.348 17.7345L18.0916 17.9063L18.4209 17.2178Z" fill="#FFDA44"/>
<path d="M15.3574 9.91225L15.6867 10.6008L16.4304 10.4289L16.0973 11.1157L16.6953 11.5899L15.9508 11.7577L15.9528 12.5209L15.3574 12.0435L14.762 12.5209L14.764 11.7577L14.0195 11.5899L14.6175 11.1157L14.2845 10.4289L15.0281 10.6008L15.3574 9.91225Z" fill="#FFDA44"/>
<path d="M18.4208 5.73827L18.7501 6.42681L19.4937 6.25488L19.1608 6.94169L19.7587 7.41592L19.0142 7.58369L19.0162 8.34695L18.4208 7.86944L17.8254 8.34695L17.8275 7.58369L17.083 7.41592L17.6809 6.94169L17.3479 6.25488L18.0915 6.42681L18.4208 5.73827Z" fill="#FFDA44"/>
<path d="M21.0976 8.87018L21.4269 9.55872L22.1706 9.38683L21.8376 10.0736L22.4355 10.5478L21.691 10.7156L21.6931 11.4789L21.0976 11.0014L20.5022 11.4789L20.5042 10.7156L19.7598 10.5478L20.3578 10.0736L20.0247 9.38683L20.7683 9.55872L21.0976 8.87018Z" fill="#FFDA44"/>
<path d="M19.1841 12.5212L19.4432 13.3184H20.2813L19.6032 13.811L19.8623 14.6081L19.1841 14.1155L18.506 14.6081L18.765 13.811L18.0869 13.3184H18.9251L19.1841 12.5212Z" fill="#FFDA44"/>
<path d="M13.3045 15.3914C11.4315 15.3914 9.9131 13.873 9.9131 12.0001C9.9131 10.1271 11.4314 8.60877 13.3045 8.60877C13.8884 8.60877 14.4379 8.75647 14.9177 9.01639C14.1651 8.28036 13.1359 7.82614 12 7.82614C9.69489 7.82614 7.82617 9.69486 7.82617 12C7.82617 14.3052 9.69489 16.1739 12 16.1739C13.1359 16.1739 14.1651 15.7197 14.9176 14.9837C14.4379 15.2437 13.8884 15.3914 13.3045 15.3914Z" fill="#FFDA44"/>
<path d="M7.54678 4.6955C7.18584 4.07188 6.51201 3.65202 5.7397 3.65202C4.96738 3.65202 4.29356 4.07188 3.93262 4.6955H7.54678Z" fill="#FFDA44"/>
<path d="M7.55328 4.70746L5.73927 6.52147L3.92525 4.70746C3.75186 5.01172 3.65234 5.36361 3.65234 5.73889C3.65234 6.8915 4.5867 7.82586 5.73931 7.82586C6.89192 7.82586 7.82628 6.89155 7.82628 5.73889C7.82623 5.36361 7.72667 5.01172 7.55328 4.70746Z" fill="#FFDA44"/>
<path d="M5.21777 6.00051V7.76085C5.38451 7.80374 5.55935 7.82657 5.73949 7.82657C5.91964 7.82657 6.09448 7.8037 6.26121 7.76085V6.00051H5.21777Z" fill="#A2001D"/>
</g>
<defs>
<clipPath id="clip0_1201_1531">
<rect width="24" height="24" fill="white"/>
</clipPath>
</defs>
</svg>
