<svg width="24" height="24" viewBox="0 0 24 24" fill="none" xmlns="http://www.w3.org/2000/svg">
<g clip-path="url(#clip0_1201_1633)">
<path d="M22.667 6.49839C22.1125 5.42406 21.3857 4.41569 20.4852 3.51513C19.5845 2.61452 18.5761 1.88772 17.5018 1.33328L9.04798 9.04919L1.33203 17.503C1.88652 18.5774 2.61331 19.5858 3.51387 20.4864C4.41444 21.3869 5.42286 22.1137 6.49714 22.6682L14.951 14.9523L22.667 6.49839Z" fill="#FFDA44"/>
<path d="M3.51455 20.4855C4.01795 20.9888 4.55509 21.4378 5.11848 21.8331L21.8334 5.11814C21.4381 4.55475 20.9892 4.01761 20.4858 3.51422C19.9824 3.01083 19.4453 2.56191 18.8819 2.16666L2.16699 18.8815C2.5622 19.4448 3.01112 19.9821 3.51455 20.4855Z" fill="#D80027"/>
<path d="M3.51441 3.5144C-0.271541 7.30035 -0.998338 12.9862 1.33257 17.5024L17.5024 1.3326C12.9862 -0.998256 7.30032 -0.271365 3.51441 3.5144Z" fill="#338AF3"/>
<path d="M20.486 20.4851C24.2719 16.6992 24.9986 11.0134 22.6679 6.49719L6.49805 22.667C11.0142 24.9978 16.7001 24.2711 20.486 20.4851Z" fill="#338AF3"/>
<path d="M6.39547 3.65115L7.043 5.64414H9.1385L7.44322 6.87583L8.09075 8.86876L6.39547 7.63703L4.70009 8.86876L5.34772 6.87583L3.65234 5.64414H5.74784L6.39547 3.65115Z" fill="#FFDA44"/>
</g>
<defs>
<clipPath id="clip0_1201_1633">
<rect width="24" height="24" fill="white"/>
</clipPath>
</defs>
</svg>
