<svg width="24" height="24" viewBox="0 0 24 24" fill="none" xmlns="http://www.w3.org/2000/svg">
<g clip-path="url(#clip0_1201_1803)">
<path d="M0.746094 16.1749C2.44161 20.7445 6.84012 24.001 11.9997 24.001C17.1593 24.001 21.5578 20.7445 23.2533 16.1749L11.9997 15.1315L0.746094 16.1749Z" fill="#FFDA44"/>
<path d="M11.9997 0.000762939C6.84012 0.000762939 2.44161 3.25726 0.746094 7.82687L11.9997 8.87031L23.2533 7.82683C21.5578 3.25726 17.1593 0.000762939 11.9997 0.000762939Z" fill="black"/>
<path d="M0.746391 7.82578C0.264047 9.12576 0 10.5318 0 11.9997C0 13.4675 0.264047 14.8736 0.746391 16.1736H23.2537C23.736 14.8736 24 13.4675 24 11.9997C24 10.5318 23.736 9.12576 23.2536 7.82578H0.746391Z" fill="#D80027"/>
</g>
<defs>
<clipPath id="clip0_1201_1803">
<rect width="24" height="24" fill="white"/>
</clipPath>
</defs>
</svg>
