<svg width="24" height="24" viewBox="0 0 24 24" fill="none" xmlns="http://www.w3.org/2000/svg">
<g clip-path="url(#clip0_1201_1647)">
<path d="M10.9565 13.044C10.9565 13.044 3.52168 3.5136 3.51465 3.51528C5.68618 1.34371 8.68623 0.000549316 12 0.000549316C18.6273 0.000549316 24 5.37318 24 12.0006L10.9565 13.044Z" fill="#338AF3"/>
<path d="M10.9565 11.9993C10.9565 11.9993 3.52168 20.4863 3.51465 20.4846C5.68618 22.6562 8.68623 23.9993 12 23.9993C18.6273 23.9993 24 18.6267 24 11.9993H10.9565Z" fill="#6DA544"/>
<path d="M3.51471 3.51462C-1.17157 8.2009 -1.17157 15.7989 3.51471 20.4852C5.45126 18.5487 7.31374 16.6862 12 11.9999L3.51471 3.51462Z" fill="#F0F0F0"/>
<path d="M4.85597 8.86938L5.63292 11.2608H8.14758L6.1133 12.7388L6.8902 15.1303L4.85597 13.6523L2.82164 15.1303L3.59873 12.7388L1.56445 11.2608H4.07892L4.85597 8.86938Z" fill="#D80027"/>
</g>
<defs>
<clipPath id="clip0_1201_1647">
<rect width="24" height="24" fill="white"/>
</clipPath>
</defs>
</svg>
