<svg width="24" height="24" viewBox="0 0 24 24" fill="none" xmlns="http://www.w3.org/2000/svg">
<g clip-path="url(#clip0_1201_1736)">
<path d="M24 12C24 18.6274 18.6274 24 12 24C5.37262 24 0 18.6274 0 12C0 12.0029 12 0.0013125 12 0C18.6274 0 24 5.37262 24 12Z" fill="#0052B4"/>
<path d="M11.9678 12.0003H11.9999C11.9999 11.9895 11.9999 11.979 11.9999 11.9681C11.9892 11.9789 11.9785 11.9896 11.9678 12.0003Z" fill="#F0F0F0"/>
<path d="M12 6.26073C12 4.14925 12 2.76573 12 -0.0001297H11.998C5.3715 0.0009953 0 5.3731 0 11.9999H6.26086V8.47435L9.78642 11.9999H11.9679C11.9786 11.9892 11.9893 11.9785 12 11.9678C12 11.1593 12 10.4379 12 9.78634L8.47443 6.26073H12Z" fill="#F0F0F0"/>
<path d="M6.07027 1.56496C4.19344 2.63366 2.63316 4.19394 1.56445 6.07077V11.9998H4.69491V4.6955V4.69541H11.9993C11.9993 3.70808 11.9993 2.76749 11.9993 1.56496H6.07027Z" fill="#D80027"/>
<path d="M11.9989 10.5244L7.73544 6.26097H6.25977V6.26106L11.9988 12.0001H11.9989C11.9989 12.0001 11.9989 10.9825 11.9989 10.5244Z" fill="#D80027"/>
<path d="M19.3046 14.0863V14.6081H15.1307V14.0863H13.5654V16.1733H14.6089V16.695H19.8263V16.1733H20.8698V14.0863H19.3046Z" fill="#FFDA44"/>
<path d="M13.5654 6.26155V12.0007C13.5654 14.7963 17.2176 15.6529 17.2176 15.6529C17.2176 15.6529 20.8698 14.7963 20.8698 12.0007V6.26155H13.5654Z" fill="#338AF3"/>
<path d="M17.2174 10.5428C16.3044 10.5428 16.3044 11.3776 15.3914 11.3776C14.4784 11.3776 14.4784 10.5428 13.5654 10.5428V12.0037C14.4784 12.0037 14.4784 12.8385 15.3914 12.8385C16.3044 12.8385 16.3044 12.0037 17.2174 12.0037C18.1304 12.0037 18.1304 12.8385 19.0436 12.8385C19.9567 12.8385 19.9566 12.0037 20.8698 12.0037V10.5428C19.9567 10.5428 19.9567 11.3776 19.0436 11.3776C18.1304 11.3776 18.1304 10.5428 17.2174 10.5428Z" fill="#F3F3F3"/>
<path d="M17.2174 7.61809C16.3044 7.61809 16.3044 8.45288 15.3914 8.45288C14.4784 8.45288 14.4784 7.61809 13.5654 7.61809V9.07895C14.4784 9.07895 14.4784 9.91374 15.3914 9.91374C16.3044 9.91374 16.3044 9.07895 17.2174 9.07895C18.1304 9.07895 18.1304 9.91374 19.0436 9.91374C19.9567 9.91374 19.9566 9.07895 20.8698 9.07895V7.61809C19.9567 7.61809 19.9567 8.45288 19.0436 8.45288C18.1304 8.45288 18.1304 7.61809 17.2174 7.61809Z" fill="#F3F3F3"/>
</g>
<defs>
<clipPath id="clip0_1201_1736">
<rect width="24" height="24" fill="white"/>
</clipPath>
</defs>
</svg>
