<svg width="24" height="24" viewBox="0 0 24 24" fill="none" xmlns="http://www.w3.org/2000/svg">
<g clip-path="url(#clip0_1201_1771)">
<path d="M12 24C18.6274 24 24 18.6274 24 12C24 5.37258 18.6274 0 12 0C5.37258 0 0 5.37258 0 12C0 18.6274 5.37258 24 12 24Z" fill="#F0F0F0"/>
<path d="M23.9999 12C23.9999 6.84038 20.7434 2.44186 16.1738 0.746346V23.2536C20.7434 21.558 23.9999 17.1595 23.9999 12Z" fill="#D80027"/>
<path d="M0 12.0007C0 17.1603 3.25655 21.5588 7.82611 23.2544V0.747139C3.25655 2.44265 0 6.84117 0 12.0007Z" fill="#0052B4"/>
</g>
<defs>
<clipPath id="clip0_1201_1771">
<rect width="24" height="24" fill="white"/>
</clipPath>
</defs>
</svg>
