<svg width="24" height="24" viewBox="0 0 24 24" fill="none" xmlns="http://www.w3.org/2000/svg">
<g clip-path="url(#clip0_1201_1786)">
<path d="M23.2536 16.1749C23.736 14.875 24 13.4689 24 12.0011C24 10.5332 23.736 9.1272 23.2536 7.82717L12 6.78368L0.746391 7.82717C0.264047 9.1272 0 10.5332 0 12.0011C0 13.4689 0.264047 14.875 0.746391 16.1749L12 17.2184L23.2536 16.1749Z" fill="#FFDA44"/>
<path d="M12.0007 23.9997C17.1603 23.9997 21.5588 20.7432 23.2543 16.1735H0.74707C2.44263 20.7432 6.8411 23.9997 12.0007 23.9997Z" fill="#0052B4"/>
<path d="M12.0007 0.000778198C6.8411 0.000778198 2.44263 3.25728 0.74707 7.82689H23.2543C21.5588 3.25728 17.1603 0.000778198 12.0007 0.000778198Z" fill="#6DA544"/>
</g>
<defs>
<clipPath id="clip0_1201_1786">
<rect width="24" height="24" fill="white"/>
</clipPath>
</defs>
</svg>
