<svg width="24" height="24" viewBox="0 0 24 24" fill="none" xmlns="http://www.w3.org/2000/svg">
<g clip-path="url(#clip0_1201_1826)">
<path d="M0 12C0 5.37262 5.37262 0 12 0C18.6274 0 24 5.37262 24 12C23.4783 12 12 13.5652 12 13.5652L0 12Z" fill="#F0F0F0"/>
<path d="M24 12.0005C24 18.6278 18.6274 24.0005 12 24.0005C5.37262 24.0005 0 18.6278 0 12.0005" fill="#D80027"/>
<path d="M8.34754 17.7397C11.5172 17.7397 14.0867 15.1702 14.0867 12.0005C14.0867 8.83088 11.5172 6.26138 8.34754 6.26138C5.1779 6.26138 2.6084 8.83088 2.6084 12.0005C2.6084 15.1702 5.1779 17.7397 8.34754 17.7397Z" fill="#F0F0F0"/>
<path d="M2.6084 12.0005C2.6084 8.83098 5.1779 6.26138 8.34754 6.26138C11.5172 6.26138 14.0867 8.83093 14.0867 12.0005" fill="#D80027"/>
</g>
<defs>
<clipPath id="clip0_1201_1826">
<rect width="24" height="24" fill="white"/>
</clipPath>
</defs>
</svg>
