<svg width="24" height="24" viewBox="0 0 24 24" fill="none" xmlns="http://www.w3.org/2000/svg">
<g clip-path="url(#clip0_1201_1883)">
<path d="M16.1743 0.746346C14.8742 0.263955 13.4681 -9.15527e-05 12.0002 -9.15527e-05C10.5325 -9.15527e-05 9.12639 0.263955 7.82645 0.746252L7.30469 11.9999L7.82641 23.2536C9.12639 23.7359 10.5325 23.9999 12.0002 23.9999C13.4682 23.9999 14.8742 23.7359 16.1743 23.2535L16.696 11.9999L16.1743 0.746346Z" fill="#FFDA44"/>
<path d="M0 12.0003C0 17.1598 3.2565 21.5584 7.82611 23.2539V0.746658C3.2565 2.44222 0 6.84069 0 12.0003Z" fill="#D80027"/>
<path d="M23.9999 12.0003C23.9999 6.84069 20.7434 2.44222 16.1738 0.746658V23.2539C20.7434 21.5584 23.9999 17.1598 23.9999 12.0003Z" fill="#6DA544"/>
</g>
<defs>
<clipPath id="clip0_1201_1883">
<rect width="24" height="24" fill="white"/>
</clipPath>
</defs>
</svg>
