<svg width="24" height="24" viewBox="0 0 24 24" fill="none" xmlns="http://www.w3.org/2000/svg">
<g clip-path="url(#clip0_1201_1876)">
<path d="M12.0001 -9.15527e-05C10.917 -9.15527e-05 9.86772 0.144283 8.86961 0.413299L7.82617 11.9999L8.86966 23.5865C9.86772 23.8555 10.917 23.9999 12.0001 23.9999C18.6274 23.9999 24.0001 18.6273 24.0001 11.9999C24.0001 5.37253 18.6274 -9.15527e-05 12.0001 -9.15527e-05Z" fill="#FFDA44"/>
<path d="M7.82617 12.0005L8.86966 23.5871C9.86772 23.8561 10.917 24.0005 12.0001 24.0005C18.6274 24.0005 24.0001 18.6278 24.0001 12.0005H7.82617Z" fill="#6DA544"/>
<path d="M0 11.9995C0 16.548 2.53078 20.5052 6.26086 22.5404V1.4586C2.53078 3.49382 0 7.45101 0 11.9995Z" fill="#D80027"/>
<path d="M0 11.9995C0 17.5438 3.76036 22.2091 8.86955 23.5861V0.412903C3.76036 1.7899 0 6.45518 0 11.9995Z" fill="#D80027"/>
<path d="M4.53468 8.86835L5.31163 11.2597H7.82629L5.79201 12.7378L6.56891 15.1293L4.53468 13.6512L2.50035 15.1293L3.27745 12.7378L1.24316 11.2597H3.75768L4.53468 8.86835Z" fill="black"/>
</g>
<defs>
<clipPath id="clip0_1201_1876">
<rect width="24" height="24" fill="white"/>
</clipPath>
</defs>
</svg>
