<svg width="24" height="24" viewBox="0 0 24 24" fill="none" xmlns="http://www.w3.org/2000/svg">
<g clip-path="url(#clip0_1201_1583)">
<path d="M24 11.9999C24 10.5321 23.736 9.12599 23.2536 7.82606L12 7.30429L0.746391 7.82601C0.264047 9.12599 0 10.5321 0 11.9999C0 13.4678 0.264047 14.8739 0.746391 16.1738L12 16.6956L23.2536 16.1739C23.736 14.8739 24 13.4678 24 11.9999Z" fill="#F0F0F0"/>
<path d="M11.9997 23.9994C17.1593 23.9994 21.5578 20.7429 23.2533 16.1733H0.746094C2.44161 20.7429 6.84013 23.9994 11.9997 23.9994Z" fill="#0052B4"/>
<path d="M0.746094 7.82669H23.2534C21.5578 3.25708 17.1593 0.000579834 11.9997 0.000579834C6.84012 0.000579834 2.44161 3.25708 0.746094 7.82669Z" fill="#D80027"/>
<path d="M15.1309 8.34753H13.0439L13.3918 5.7388L14.7831 4.69531L16.1743 5.7388V7.82576L15.1309 8.34753Z" fill="#338AF3"/>
<path d="M8.86961 8.34805H10.9566L10.6087 5.73932L9.21742 4.69583L7.82617 5.73932V7.82628L8.86961 8.34805Z" fill="#338AF3"/>
<path d="M13.3911 8.34781H10.6084V5.73907L11.9997 4.69559L13.3911 5.73907V8.34781Z" fill="#0052B4"/>
<path d="M7.82617 7.82574V13.5648C7.82617 14.9314 8.48627 16.1467 9.50439 16.9085L10.2348 16.7258L11.1566 17.653C11.4292 17.7092 11.7112 17.7388 12.0001 17.7388C12.2875 17.7388 12.5681 17.7096 12.8392 17.654L13.8914 16.7779L14.4957 16.9068C15.5134 16.145 16.174 14.931 16.174 13.5648V7.82574H7.82617Z" fill="#F0F0F0"/>
<path d="M9.49572 7.8259H7.82617V9.49545H9.49572V7.8259Z" fill="#D80027"/>
<path d="M12.8346 7.8259H11.165V9.49545H12.8346V7.8259Z" fill="#D80027"/>
<path d="M16.1744 7.8259H14.5049V9.49545H16.1744V7.8259Z" fill="#D80027"/>
<path d="M11.1647 9.49493H9.49512V11.1645H11.1647V9.49493Z" fill="#D80027"/>
<path d="M14.5045 9.49493H12.835V11.1645H14.5045V9.49493Z" fill="#D80027"/>
<path d="M9.49572 11.1638H7.82617V12.8333H9.49572V11.1638Z" fill="#D80027"/>
<path d="M11.1647 12.8346H9.49512V14.5041H11.1647V12.8346Z" fill="#D80027"/>
<path d="M12.8346 11.1638H11.165V12.8333H12.8346V11.1638Z" fill="#D80027"/>
<path d="M16.1744 11.1638H14.5049V12.8333H16.1744V11.1638Z" fill="#D80027"/>
<path d="M14.5045 12.8346H12.835V14.5041H14.5045V12.8346Z" fill="#D80027"/>
<path d="M12.8346 14.5038H11.165V16.1734H12.8346V14.5038Z" fill="#D80027"/>
<path d="M9.49542 14.5038H7.93359C8.07684 15.1245 8.35847 15.6924 8.74462 16.1734H9.49542V14.5038Z" fill="#D80027"/>
<path d="M14.5049 16.1736H15.2556C15.6419 15.6926 15.9234 15.1246 16.0667 14.5041H14.5049V16.1736Z" fill="#D80027"/>
<path d="M9.49512 16.1731V16.9016C9.98069 17.267 10.5482 17.529 11.1647 17.6547V16.1731H9.49512Z" fill="#D80027"/>
<path d="M12.835 16.1731V17.6547C13.4515 17.5291 14.0189 17.267 14.5045 16.9016V16.1731H12.835Z" fill="#D80027"/>
</g>
<defs>
<clipPath id="clip0_1201_1583">
<rect width="24" height="24" fill="white"/>
</clipPath>
</defs>
</svg>
