<svg width="24" height="24" viewBox="0 0 24 24" fill="none" xmlns="http://www.w3.org/2000/svg">
<g clip-path="url(#clip0_1201_1960)">
<path d="M12 24C18.6274 24 24 18.6274 24 12C24 5.37258 18.6274 0 12 0C5.37258 0 0 5.37258 0 12C0 18.6274 5.37258 24 12 24Z" fill="#D80027"/>
<path d="M16.4437 8.0439L15.5955 11.0707L13.0507 10.6007L11.4126 7.22411L6.98727 8.79446L6.63828 7.81103L5.48047 7.66839L6.35286 10.1269L9.39828 9.3481L10.2637 11.787L8.15848 14.8939L11.7312 17.9411L11.054 18.735L11.5093 19.8091L13.2024 17.8242L11.0052 15.5762L12.6845 13.6074L16.4279 13.8771L17.2805 9.25942L18.3066 9.44893L19.0093 8.51753L16.4437 8.0439Z" fill="#F0F0F0"/>
</g>
<defs>
<clipPath id="clip0_1201_1960">
<rect width="24" height="24" fill="white"/>
</clipPath>
</defs>
</svg>
