<svg width="24" height="24" viewBox="0 0 24 24" fill="none" xmlns="http://www.w3.org/2000/svg">
<g clip-path="url(#clip0_1201_2476)">
<path d="M12 24C18.6274 24 24 18.6274 24 12C24 5.37257 18.6274 0 12 0C5.37257 0 0 5.37257 0 12C0 18.6274 5.37257 24 12 24Z" fill="#FFDA44"/>
<path d="M3.51539 20.4851C4.01878 20.9885 4.55593 21.4375 5.11932 21.8327L21.8335 5.11852C21.4383 4.55508 20.9893 4.01799 20.4859 3.5146C19.9825 3.01121 19.4454 2.56238 18.882 2.16708L2.16797 18.8813C2.56313 19.4447 3.012 19.9817 3.51539 20.4851Z" fill="black"/>
<path d="M3.51426 3.51474C-0.271509 7.30051 -0.998308 12.9861 1.33251 17.5021L17.5016 1.33308C12.9856 -0.997694 7.2999 -0.270895 3.51426 3.51474Z" fill="#6DA544"/>
<path d="M20.4855 20.4847C24.2712 16.699 24.998 11.0134 22.6673 6.49733L6.49805 22.6665C11.0141 24.9972 16.6997 24.2705 20.4855 20.4847Z" fill="#D80027"/>
<path d="M7.62971 14.1577L8.74993 14.7285L9.63896 13.8395L9.44228 15.0812L10.5624 15.652L9.32068 15.8487L9.12399 17.0904L8.55324 15.9702L7.31152 16.1669L8.20051 15.2779L7.62971 14.1577Z" fill="#F0F0F0"/>
<path d="M14.1561 7.63052L15.2763 8.20132L16.1653 7.31233L15.9686 8.55401L17.0888 9.12485L15.8471 9.32154L15.6504 10.5633L15.0796 9.44308L13.8379 9.63973L14.7269 8.75074L14.1561 7.63052Z" fill="#F0F0F0"/>
</g>
<defs>
<clipPath id="clip0_1201_2476">
<rect width="24" height="24" fill="white"/>
</clipPath>
</defs>
</svg>
