<svg width="24" height="24" viewBox="0 0 24 24" fill="none" xmlns="http://www.w3.org/2000/svg">
<g clip-path="url(#clip0_1201_2322)">
<path d="M12 24C18.6274 24 24 18.6274 24 12C24 5.37258 18.6274 0 12 0C5.37258 0 0 5.37258 0 12C0 18.6274 5.37258 24 12 24Z" fill="#F0F0F0"/>
<path d="M11.9999 -0.000274658C8.36285 -0.000274658 5.10396 1.61804 2.90332 4.17362H21.0965C18.8959 1.61804 15.637 -0.000274658 11.9999 -0.000274658Z" fill="#0052B4"/>
<path d="M21.0965 19.8269H2.90332C5.10396 22.3825 8.36285 24.0008 11.9999 24.0008C15.637 24.0008 18.8959 22.3825 21.0965 19.8269Z" fill="#0052B4"/>
<path d="M22.2387 5.73862H1.76128C0.644297 7.56135 0 9.70509 0 11.9995C0 14.2939 0.644297 16.4377 1.76128 18.2603H22.2387C23.3557 16.4377 24 14.2939 24 11.9995C24 9.70509 23.3557 7.56135 22.2387 5.73862Z" fill="#D80027"/>
<path d="M7.383 16.6182C9.9331 16.6182 12.0004 14.5509 12.0004 12.0008C12.0004 9.45072 9.9331 7.38345 7.383 7.38345C4.83289 7.38345 2.76562 9.45072 2.76562 12.0008C2.76562 14.5509 4.83289 16.6182 7.383 16.6182Z" fill="#F0F0F0"/>
<path d="M7.38279 7.38345L8.41877 10.5719H11.7768L9.05913 12.5427L10.1032 15.7407L7.38279 13.7606L4.66648 15.737L5.70645 12.5427L2.99121 10.5719H6.34676L7.38279 7.38345Z" fill="#D80027"/>
</g>
<defs>
<clipPath id="clip0_1201_2322">
<rect width="24" height="24" fill="white"/>
</clipPath>
</defs>
</svg>
