<svg width="24" height="24" viewBox="0 0 24 24" fill="none" xmlns="http://www.w3.org/2000/svg">
<g clip-path="url(#clip0_1201_1468)">
<path d="M24 12C24 18.6274 18.6274 24 12 24C5.37262 24 0 18.6274 0 12C0 12.0029 12 0.0013125 12 0C18.6274 0 24 5.37262 24 12Z" fill="#0052B4"/>
<path d="M11.9688 12.0004H12.0009C12.0009 11.9896 12.0009 11.9791 12.0009 11.9683C11.9902 11.979 11.9795 11.9897 11.9688 12.0004Z" fill="#F0F0F0"/>
<path d="M12 6.26039C12 4.1489 12 2.76539 12 -0.000473022H11.998C5.37145 0.000651977 0 5.37276 0 11.9995H6.26086V8.47401L9.78638 11.9995H11.9679C11.9786 11.9888 11.9893 11.9782 12 11.9674C12 11.159 12 10.4376 12 9.786L8.47444 6.26039H12Z" fill="#F0F0F0"/>
<path d="M17.2169 8.86916C18.3695 8.86916 19.3038 7.93479 19.3038 6.78219C19.3038 5.62959 18.3695 4.69522 17.2169 4.69522C16.0642 4.69522 15.1299 5.62959 15.1299 6.78219C15.1299 7.93479 16.0642 8.86916 17.2169 8.86916Z" fill="#6DA544"/>
<path d="M6.07027 1.56526C4.19344 2.63397 2.63311 4.19425 1.56445 6.07107V12.0001H4.69491V4.69581V4.69572H11.9993C11.9993 3.70839 11.9993 2.76779 11.9993 1.56526H6.07027Z" fill="#D80027"/>
<path d="M11.9989 10.5238L7.73539 6.26042H6.25977V6.26052L11.9988 11.9995H11.9989C11.9989 11.9995 11.9989 10.982 11.9989 10.5238Z" fill="#D80027"/>
<path d="M20.8688 6.26042H13.5645V9.39087H20.8688V6.26042Z" fill="#D80027"/>
<path d="M13.5654 14.0869V16.1738H14.6634C15.3218 16.819 16.223 17.2173 17.2176 17.2173C18.2122 17.2173 19.1134 16.819 19.7718 16.1738H19.8263H20.8698V14.0869H13.5654Z" fill="#FFDA44"/>
<path d="M13.5654 8.86902V11.9995C13.5654 14.7951 17.2176 15.6516 17.2176 15.6516C17.2176 15.6516 20.8698 14.7951 20.8698 11.9995V8.86902H13.5654Z" fill="#338AF3"/>
<path d="M17.2174 10.5403C16.3044 10.5403 16.3044 11.3751 15.3914 11.3751C14.4784 11.3751 14.4784 10.5403 13.5654 10.5403V12.0012C14.4784 12.0012 14.4784 12.836 15.3914 12.836C16.3044 12.836 16.3044 12.0012 17.2174 12.0012C18.1304 12.0012 18.1304 12.836 19.0436 12.836C19.9567 12.836 19.9566 12.0012 20.8698 12.0012V10.5403C19.9567 10.5403 19.9567 11.3751 19.0436 11.3751C18.1304 11.3751 18.1304 10.5403 17.2174 10.5403Z" fill="#F3F3F3"/>
<path d="M17.2174 7.61665C16.3044 7.61665 16.3044 8.45145 15.3914 8.45145C14.4784 8.45145 14.4784 7.61665 13.5654 7.61665V9.07751C14.4784 9.07751 14.4784 9.91231 15.3914 9.91231C16.3044 9.91231 16.3044 9.07751 17.2174 9.07751C18.1304 9.07751 18.1304 9.91231 19.0436 9.91231C19.9567 9.91231 19.9566 9.07751 20.8698 9.07751V7.61665C19.9567 7.61665 19.9567 8.45145 19.0436 8.45145C18.1304 8.45145 18.1304 7.61665 17.2174 7.61665Z" fill="#F3F3F3"/>
</g>
<defs>
<clipPath id="clip0_1201_1468">
<rect width="24" height="24" fill="white"/>
</clipPath>
</defs>
</svg>
