<svg width="24" height="24" viewBox="0 0 24 24" fill="none" xmlns="http://www.w3.org/2000/svg">
<g clip-path="url(#clip0_1201_2036)">
<path d="M22.809 6.78189C20.868 2.76794 16.7572 -0.000732422 11.9997 -0.000732422C7.24218 -0.000732422 3.13143 2.76794 1.19043 6.78189L11.9997 7.82538L22.809 6.78189Z" fill="#D80027"/>
<path d="M1.19043 17.2162C3.13143 21.2301 7.24218 23.9988 11.9997 23.9988C16.7572 23.9988 20.868 21.2301 22.809 17.2162L11.9997 16.1727L1.19043 17.2162Z" fill="#D80027"/>
<path d="M22.8093 6.7818H1.19072C0.427875 8.35938 0 10.1293 0 11.9992C0 13.8691 0.427875 15.639 1.19072 17.2166H22.8092C23.5722 15.639 24 13.8691 24 11.9992C24 10.1293 23.5722 8.35938 22.8093 6.7818Z" fill="#0052B4"/>
<path d="M12.0001 16.1736C14.3052 16.1736 16.174 14.3049 16.174 11.9997C16.174 9.69454 14.3052 7.82582 12.0001 7.82582C9.69489 7.82582 7.82617 9.69454 7.82617 11.9997C7.82617 14.3049 9.69489 16.1736 12.0001 16.1736Z" fill="#F0F0F0"/>
</g>
<defs>
<clipPath id="clip0_1201_2036">
<rect width="24" height="24" fill="white"/>
</clipPath>
</defs>
</svg>
