<svg width="24" height="24" viewBox="0 0 24 24" fill="none" xmlns="http://www.w3.org/2000/svg">
<g clip-path="url(#clip0_1201_2654)">
<path d="M12 24C18.6274 24 24 18.6274 24 12C24 5.37257 18.6274 0 12 0C5.37257 0 0 5.37257 0 12C0 18.6274 5.37257 24 12 24Z" fill="#FFDA44"/>
<path d="M9.39149 2.0862H5.23672C5.0526 2.21206 4.87241 2.34308 4.69583 2.47869L3.65234 11.9992L4.69583 21.5197C4.87241 21.6554 5.0526 21.7864 5.23672 21.9122H9.39149V2.0862Z" fill="#FF9811"/>
<path d="M0 12.0006C0 15.8793 1.84069 19.3275 4.69567 21.5211V2.48006C1.84069 4.67372 0 8.12194 0 12.0006Z" fill="#6DA544"/>
<path d="M19.3047 7.31535V7.61586L19.3159 7.61755L19.3047 7.31535Z" fill="#FFDA44"/>
<path d="M23.043 15.1297H20.7821L19.8256 16.1732V18.2601H17.7386V17.2166H18.7821V15.1297H14.0865V16.434H13.043V13.9482C12.7228 13.6616 12.5213 13.2453 12.5213 12.7818V5.99924C12.5213 5.13482 13.222 4.43404 14.0865 4.43404V14.0862H16.1734L16.8895 13.4895C16.7644 13.1916 16.6952 12.8644 16.6952 12.521V10.9558H15.13V7.8254H18.2604C18.2604 7.30368 19.043 6.78192 19.043 6.78192C19.043 6.78192 19.8256 7.30364 19.8256 7.8254V8.60803V10.9559C20.4061 10.9628 21.3283 10.9477 22.3246 10.9559C22.0629 10.4984 21.9125 9.9555 21.9125 9.39066C21.9125 8.46998 22.31 7.64226 22.9428 7.06945C22.0308 5.04843 20.5755 3.32521 18.763 2.0862H10.9561V21.9123H18.763C20.967 20.4057 22.6428 18.1833 23.4558 15.58L23.043 15.1297Z" fill="#A2001D"/>
</g>
<defs>
<clipPath id="clip0_1201_2654">
<rect width="24" height="24" fill="white"/>
</clipPath>
</defs>
</svg>
