<svg width="24" height="24" viewBox="0 0 24 24" fill="none" xmlns="http://www.w3.org/2000/svg">
<g clip-path="url(#clip0_1201_2058)">
<path d="M12 24C18.6274 24 24 18.6274 24 12C24 5.37258 18.6274 0 12 0C5.37258 0 0 5.37258 0 12C0 18.6274 5.37258 24 12 24Z" fill="#F0F0F0"/>
<path d="M2.74316 4.36309H21.2573C20.5735 3.53504 19.7804 2.80074 18.9006 2.18129H5.0999C4.2201 2.80065 3.42702 3.53499 2.74316 4.36309Z" fill="#F0F0F0"/>
<path d="M0 12.0005C0 12.3684 0.0174844 12.732 0.049875 13.0915H23.9501C23.9825 12.732 24 12.3684 24 12.0005C24 11.6327 23.9825 11.2691 23.9501 10.9097H0.049875C0.0174844 11.2691 0 11.6327 0 12.0005Z" fill="#F0F0F0"/>
<path d="M1.30884 17.4546H22.6917C23.0451 16.7634 23.3332 16.0335 23.5484 15.2729H0.452148C0.667258 16.0335 0.955539 16.7634 1.30884 17.4546Z" fill="#F0F0F0"/>
<path d="M5.0999 21.8181H18.9005C19.7803 21.1986 20.5734 20.4643 21.2572 19.6363H2.74316C3.42702 20.4642 4.2201 21.1986 5.0999 21.8181Z" fill="#F0F0F0"/>
<path d="M0.452148 8.72786H23.5485C23.3333 7.96718 23.0451 7.23724 22.6918 6.54607H1.30888C0.955586 7.23724 0.667305 7.96718 0.452148 8.72786Z" fill="#F0F0F0"/>
<path d="M5.73926 2.18186H18.9004C16.9486 0.807577 14.5687 6.10352e-05 12.0001 6.10352e-05C10.4349 6.10352e-05 7.69113 0.807577 5.73926 2.18186Z" fill="#D80027"/>
<path d="M11.4785 6.54526H22.6917C22.2926 5.76465 21.8107 5.03345 21.2573 4.36346H11.4785V6.54526Z" fill="#D80027"/>
<path d="M11.4785 10.9085H23.9504C23.8829 10.1593 23.7472 9.42976 23.5484 8.72668H11.4785V10.9085Z" fill="#D80027"/>
<path d="M0.451805 15.2736H23.5481C23.7469 14.5706 23.8826 13.841 23.9501 13.0918H0.0498047C0.117305 13.841 0.252961 14.5706 0.451805 15.2736Z" fill="#D80027"/>
<path d="M2.74297 19.6368H21.2571C21.8105 18.9668 22.2924 18.2356 22.6915 17.455H1.30859C1.70764 18.2357 2.18961 18.9669 2.74297 19.6368Z" fill="#D80027"/>
<path d="M11.9999 24.0005C14.5685 24.0005 16.9484 23.193 18.9003 21.8187H5.09961C7.05148 23.193 9.43133 24.0005 11.9999 24.0005Z" fill="#D80027"/>
<path d="M0.451758 8.72685C0.252914 9.42998 0.117305 10.1595 0.0498047 10.9087H11.9999V-0.000427246C6.50711 -0.000427246 1.87638 3.69014 0.451758 8.72685Z" fill="#0052B4"/>
<path d="M7.14405 3.13052L7.92101 5.52185H10.4357L8.40138 6.99992L9.17829 9.39139L7.14405 7.91342L5.10973 9.39139L5.88682 6.99992L3.85254 5.52185H6.36705L7.14405 3.13052Z" fill="#F0F0F0"/>
</g>
<defs>
<clipPath id="clip0_1201_2058">
<rect width="24" height="24" fill="white"/>
</clipPath>
</defs>
</svg>
