<svg width="24" height="24" viewBox="0 0 24 24" fill="none" xmlns="http://www.w3.org/2000/svg">
<g clip-path="url(#clip0_1201_2094)">
<path d="M12 24C18.6274 24 24 18.6274 24 12C24 5.37258 18.6274 0 12 0C5.37258 0 0 5.37258 0 12C0 18.6274 5.37258 24 12 24Z" fill="#496E2D"/>
<path d="M14.0872 11.5003C13.7927 11.5003 13.513 11.559 13.2533 11.6525C13.3956 11.3354 13.491 10.9826 13.491 10.6059C13.491 9.11523 12.0003 7.99722 12.0003 7.99722C12.0003 7.99722 10.5096 9.11523 10.5096 10.6059C10.5096 10.9826 10.605 11.3354 10.7473 11.6525C10.4875 11.5591 10.2079 11.5003 9.91337 11.5003C8.4227 11.5003 7.30469 12.991 7.30469 12.991C7.30469 12.991 8.4227 14.4817 9.91337 14.4817C10.7874 14.4817 11.5328 13.9694 12.0003 13.5454C12.4679 13.9694 13.2133 14.4817 14.0873 14.4817C15.578 14.4817 16.696 12.991 16.696 12.991C16.696 12.991 15.5779 11.5003 14.0872 11.5003Z" fill="#F0F0F0"/>
<path d="M12.0006 4.69457L12.3086 5.6422H13.305L12.499 6.22795L12.8066 7.17557L12.0006 6.58982L11.1946 7.17557L11.5023 6.22795L10.6963 5.6422H11.6927L12.0006 4.69457Z" fill="#FFDA44"/>
<path d="M8.2111 6.35153L8.80351 6.88488L9.49384 6.48634L9.16965 7.21455L9.76201 7.74799L8.96926 7.66464L8.64507 8.39285L8.47923 7.61317L7.68652 7.52983L8.3768 7.1312L8.2111 6.35153Z" fill="#FFDA44"/>
<path d="M5.4375 9.12593L6.21722 9.29164L6.6158 8.60131L6.69914 9.39401L7.47877 9.55986L6.75061 9.88409L6.83395 10.6767L6.30047 10.0845L5.57231 10.4087L5.97089 9.71829L5.4375 9.12593Z" fill="#FFDA44"/>
<path d="M15.7891 6.35153L15.1968 6.88488L14.5065 6.48634L14.8306 7.21455L14.2383 7.74799L15.031 7.66464L15.3552 8.39285L15.5211 7.61317L16.3138 7.52983L15.6235 7.1312L15.7891 6.35153Z" fill="#FFDA44"/>
<path d="M18.5627 9.12593L17.783 9.29164L17.3845 8.60131L17.3011 9.39401L16.5215 9.55986L17.2496 9.88409L17.1663 10.6767L17.6998 10.0845L18.4279 10.4087L18.0294 9.71829L18.5627 9.12593Z" fill="#FFDA44"/>
<path d="M11.9997 18.6554C13.1838 18.6554 14.2752 18.2604 15.1507 17.5956H8.84863C9.72416 18.2603 10.8156 18.6554 11.9997 18.6554Z" fill="#F0F0F0"/>
<path d="M7.2168 15.5243C7.38241 15.9034 7.59241 16.2583 7.83906 16.5841H16.1602C16.4069 16.2584 16.6169 15.9034 16.7825 15.5243H7.2168Z" fill="#F0F0F0"/>
</g>
<defs>
<clipPath id="clip0_1201_2094">
<rect width="24" height="24" fill="white"/>
</clipPath>
</defs>
</svg>
