<svg width="24" height="24" viewBox="0 0 24 24" fill="none" xmlns="http://www.w3.org/2000/svg">
<g clip-path="url(#clip0_1201_2210)">
<path d="M24 12C24 18.6274 18.6274 24 12 24C5.37262 24 0 18.6274 0 12C0 12.0029 12 0.0013125 12 0C18.6274 0 24 5.37262 24 12Z" fill="#0052B4"/>
<path d="M11.9678 11.9998H11.9999C11.9999 11.989 11.9999 11.9784 11.9999 11.9676C11.9892 11.9783 11.9785 11.9891 11.9678 11.9998Z" fill="#F0F0F0"/>
<path d="M12 6.26126C12 4.14977 12 2.76626 12 0.000396729H11.998C5.37145 0.00152173 0 5.37363 0 12.0004H6.26086V8.47488L9.78637 12.0004H11.9679C11.9786 11.9897 11.9893 11.979 12 11.9683C12 11.1598 12 10.4385 12 9.78687L8.47443 6.26126H12Z" fill="#F0F0F0"/>
<path d="M6.07124 1.56548C4.19441 2.63418 2.63409 4.19446 1.56543 6.07129V12.0003H4.69588V4.69602V4.69593H12.0002C12.0002 3.7086 12.0002 2.76801 12.0002 1.56548H6.07124Z" fill="#D80027"/>
<path d="M12.0009 10.5243L7.73734 6.26083H6.26172V6.26093L12.0008 11.9999H12.0009C12.0009 11.9999 12.0009 10.9824 12.0009 10.5243Z" fill="#D80027"/>
<path d="M13.5654 6.26051V11.9996C13.5654 14.7952 17.2176 15.6518 17.2176 15.6518C17.2176 15.6518 20.8698 14.7952 20.8698 11.9996V6.26051H13.5654Z" fill="#338AF3"/>
<path d="M13.5654 11.9992C13.5654 14.7948 17.2176 15.6514 17.2176 15.6514C17.2176 15.6514 20.8698 14.7948 20.8698 11.9992H13.5654Z" fill="#A2001D"/>
<path d="M18.7828 8.86912H17.7393V7.82559H16.6958V8.86912H15.6523V9.91256H16.6958V13.043H17.7393V9.91256H18.7828V8.86912Z" fill="black"/>
</g>
<defs>
<clipPath id="clip0_1201_2210">
<rect width="24" height="24" fill="white"/>
</clipPath>
</defs>
</svg>
