<svg width="24" height="24" viewBox="0 0 24 24" fill="none" xmlns="http://www.w3.org/2000/svg">
<g clip-path="url(#clip0_1201_2239)">
<path d="M12 24C18.6274 24 24 18.6274 24 12C24 5.37258 18.6274 0 12 0C5.37258 0 0 5.37258 0 12C0 18.6274 5.37258 24 12 24Z" fill="#F0F0F0"/>
<path d="M3.51451 20.4849C4.0179 20.9883 4.55499 21.4372 5.11838 21.8325L21.8326 5.11828C21.4374 4.55489 20.9884 4.01779 20.485 3.5144C19.9816 3.01101 19.4445 2.56214 18.8811 2.16689L2.16699 18.8811C2.5622 19.4444 3.01112 19.9815 3.51451 20.4849Z" fill="#A2001D"/>
<path d="M3.51526 3.51476C-0.270555 7.30057 -0.997306 12.9861 1.33346 17.5022L17.5026 1.33306C12.9866 -0.997707 7.30098 -0.270863 3.51526 3.51476Z" fill="#0052B4"/>
<path d="M20.4854 20.4847C24.2711 16.699 24.9979 11.0134 22.6672 6.49733L6.49805 22.6665C11.014 24.9973 16.6996 24.2705 20.4854 20.4847Z" fill="#496E2D"/>
<path d="M9.91356 6.78185L8.56891 7.41434L9.28497 8.71662L7.82486 8.43734L7.6398 9.91226L6.6228 8.82743L5.60575 9.91226L5.42078 8.43734L3.96063 8.71657L4.67664 7.41429L3.33203 6.78185L4.67669 6.14932L3.96063 4.84713L5.42073 5.12641L5.6058 3.6514L6.6228 4.73627L7.63984 3.6514L7.82486 5.12641L9.28497 4.84713L8.569 6.14937L9.91356 6.78185Z" fill="#FFDA44"/>
</g>
<defs>
<clipPath id="clip0_1201_2239">
<rect width="24" height="24" fill="white"/>
</clipPath>
</defs>
</svg>
