<svg width="24" height="24" viewBox="0 0 24 24" fill="none" xmlns="http://www.w3.org/2000/svg">
<g clip-path="url(#clip0_1201_2288)">
<path d="M1.19072 6.78209C0.427875 8.35972 0 10.1296 0 11.9995C0 13.8694 0.427875 15.6392 1.19072 17.2168L12 18.2603L22.8093 17.2168C23.5721 15.6392 24 13.8694 24 11.9995C24 10.1296 23.5721 8.35972 22.8093 6.78209L12 5.73861L1.19072 6.78209Z" fill="#F0F0F0"/>
<path d="M1.19043 17.2183C3.13134 21.2323 7.24176 24.0009 11.9993 24.0009C16.7568 24.0009 20.8672 21.2323 22.8081 17.2183H1.19043Z" fill="#6DA544"/>
<path d="M1.19043 6.78236H22.8081C20.8672 2.7684 16.7568 -0.000267029 11.9993 -0.000267029C7.24181 -0.000267029 3.13134 2.7684 1.19043 6.78236Z" fill="#FF9811"/>
<path d="M11.9991 16.1742C14.3043 16.1742 16.173 14.3055 16.173 12.0003C16.173 9.69512 14.3043 7.8264 11.9991 7.8264C9.69391 7.8264 7.8252 9.69512 7.8252 12.0003C7.8252 14.3055 9.69391 16.1742 11.9991 16.1742Z" fill="#FF9811"/>
</g>
<defs>
<clipPath id="clip0_1201_2288">
<rect width="24" height="24" fill="white"/>
</clipPath>
</defs>
</svg>
