<svg width="24" height="24" viewBox="0 0 24 24" fill="none" xmlns="http://www.w3.org/2000/svg">
<g clip-path="url(#clip0_1201_2316)">
<path d="M17.2165 1.19044C15.6389 0.4276 13.869 -0.000274658 11.9991 -0.000274658C10.1292 -0.000274658 8.35939 0.4276 6.78176 1.19044L5.73828 11.9997L6.78176 22.809C8.35939 23.5718 10.1292 23.9997 11.9991 23.9997C13.869 23.9997 15.6389 23.5718 17.2165 22.809L18.26 11.9997L17.2165 1.19044Z" fill="#F0F0F0"/>
<path d="M6.78262 1.19125C2.76867 3.13216 0 7.24258 0 12.0001C0 16.7576 2.76867 20.8681 6.78262 22.809V1.19125Z" fill="#6DA544"/>
<path d="M17.2168 1.19125V22.809C21.2307 20.8681 23.9994 16.7576 23.9994 12.0001C23.9994 7.24263 21.2307 3.13216 17.2168 1.19125Z" fill="#6DA544"/>
<path d="M15.131 15.6517L12.0006 5.73862L8.87012 15.6517H11.2179V18.2603H12.7832V15.6517H15.131Z" fill="#6DA544"/>
</g>
<defs>
<clipPath id="clip0_1201_2316">
<rect width="24" height="24" fill="white"/>
</clipPath>
</defs>
</svg>
