<svg width="24" height="24" viewBox="0 0 24 24" fill="none" xmlns="http://www.w3.org/2000/svg">
<g clip-path="url(#clip0_1201_2299)">
<path d="M24 12C24 18.6274 18.6274 24 12 24C5.37262 24 0 18.6274 0 12C0 12.0029 12 0.0013125 12 0C18.6274 0 24 5.37262 24 12Z" fill="#FFDA44"/>
<path d="M12.0001 5.73955V9.78688L7.82617 5.73955H12.0001Z" fill="#0052B4"/>
<path d="M6.26098 12.0003H9.78649L6.26098 7.30462L5.73926 10.9568L6.26098 12.0003Z" fill="#0052B4"/>
<path d="M11.9688 12.0006H12.0009C12.0009 11.9898 12.0009 11.9793 12.0009 11.9685C11.9902 11.9792 11.9795 11.9899 11.9688 12.0006Z" fill="#F0F0F0"/>
<path d="M12 6.26086C12 4.14937 12 2.76586 12 0H11.998C5.37145 0.001125 0 5.37323 0 12H6.26086V8.47448L9.78637 12H11.9679C11.9786 11.9893 11.9893 11.9786 12 11.9679C12 11.1594 12 10.4381 12 9.78647L8.47443 6.26086H12Z" fill="#F0F0F0"/>
<path d="M11.9989 10.5247L7.73539 6.26125H6.25977V6.26135L11.9988 12.0003H11.9989C11.9989 12.0003 11.9989 10.9828 11.9989 10.5247Z" fill="#D80027"/>
<path d="M6.07027 1.565C5.60766 1.82844 5.16445 2.12202 4.74295 2.4425H5.23533L3.93398 3.38816L4.43095 4.91802L3.12961 3.97255L2.99114 4.07319C2.45081 4.68678 1.97175 5.3556 1.56445 6.07082V11.9998H4.69491V4.69555V4.69546H11.9993C11.9993 3.70813 11.9993 2.76753 11.9993 1.565H6.07027Z" fill="#D80027"/>
<path d="M5.12601 2.16427C4.99659 2.25488 4.86899 2.34802 4.74332 2.4436L3.93449 3.38925L3.13012 3.9736L2.99048 4.07503C2.69582 4.40972 2.41949 4.76091 2.16309 5.12714C2.45535 5.26899 2.78343 5.34872 3.13012 5.34872C4.35477 5.34872 5.34749 4.356 5.34749 3.13135C5.34759 2.78457 5.2679 2.45658 5.12601 2.16427Z" fill="#0052B4"/>
<path d="M2.99023 4.07386L3.12987 3.97242L4.43122 4.91794L3.9342 3.38808L5.23545 2.44242H4.74299C4.10577 2.92706 3.51856 3.47381 2.99023 4.07386Z" fill="#FFDA44"/>
<path d="M8.29451 2.08739L8.55354 2.8845H9.39167L8.71362 3.3772L8.97251 4.17431L8.29451 3.68165L7.61647 4.17431L7.87531 3.3772L7.19727 2.8845H8.03544L8.29451 2.08739Z" fill="#FFDA44"/>
<path d="M3.13041 7.30522L3.38944 8.10233H4.22756L3.54956 8.59508L3.80845 9.39219L3.13041 8.89949L2.45231 9.39219L2.7112 8.59508L2.0332 8.10233H2.87133L3.13041 7.30522Z" fill="#FFDA44"/>
</g>
<defs>
<clipPath id="clip0_1201_2299">
<rect width="24" height="24" fill="white"/>
</clipPath>
</defs>
</svg>
