<svg width="24" height="24" viewBox="0 0 24 24" fill="none" xmlns="http://www.w3.org/2000/svg">
<g clip-path="url(#clip0_1201_2266)">
<path d="M24 12C24 18.6274 18.6274 24 12 24C5.37262 24 0 18.6274 0 12C0 12.0029 12 0.0013125 12 0C18.6274 0 24 5.37262 24 12Z" fill="#0052B4"/>
<path d="M11.9678 12.0005H11.9999C11.9999 11.9897 11.9999 11.9792 11.9999 11.9683C11.9892 11.9791 11.9785 11.9898 11.9678 12.0005Z" fill="#F0F0F0"/>
<path d="M12 6.26091C12 4.14943 12 2.76591 12 5.34058e-05H11.998C5.3715 0.00117841 0 5.37329 0 12.0001H6.26086V8.47454L9.78642 12.0001H11.9679C11.9786 11.9894 11.9894 11.9787 12 11.9679C12 11.1595 12 10.4381 12 9.78652L8.47443 6.26091H12Z" fill="#F0F0F0"/>
<path d="M6.07124 1.565C4.19441 2.63371 2.63413 4.19399 1.56543 6.07082V11.9998H4.69588V4.69555V4.69546H12.0002C12.0002 3.70813 12.0002 2.76753 12.0002 1.565H6.07124Z" fill="#D80027"/>
<path d="M12.0008 10.5247L7.73739 6.26125C7.73739 6.26125 6.26172 6.26135 6.26172 6.26125V6.26135L12.0008 12.0003H12.0008C12.0008 12.0003 12.0008 10.9828 12.0008 10.5247Z" fill="#D80027"/>
<path d="M20.7808 8.9047L21.0398 9.70186H21.878L21.1999 10.1945L21.4589 10.9916L20.7808 10.499L20.1027 10.9916L20.3617 10.1945L19.6836 9.70186H20.5218L20.7808 8.9047Z" fill="#D80027"/>
<path d="M17.7854 14.6436L18.174 15.8393H19.4312L18.414 16.5783L18.8026 17.774L17.7854 17.035L16.7682 17.774L17.1568 16.5783L16.1396 15.8393H17.3969L17.7854 14.6436Z" fill="#D80027"/>
<path d="M17.8988 5.25195L18.2226 6.24846H19.2703L18.4226 6.86416L18.7464 7.86063L17.8988 7.24474L17.0512 7.86063L17.3749 6.86416L16.5273 6.24846H17.575L17.8988 5.25195Z" fill="#D80027"/>
<path d="M15.0149 8.86997L15.4034 10.0658H16.6607L15.6435 10.8047L16.0321 12.0004L15.0149 11.2614L13.9977 12.0004L14.3863 10.8047L13.3691 10.0658H14.6264L15.0149 8.86997Z" fill="#D80027"/>
</g>
<defs>
<clipPath id="clip0_1201_2266">
<rect width="24" height="24" fill="white"/>
</clipPath>
</defs>
</svg>
