<svg width="24" height="24" viewBox="0 0 24 24" fill="none" xmlns="http://www.w3.org/2000/svg">
<g clip-path="url(#clip0_1201_2374)">
<path d="M20.4853 20.4857C15.799 25.172 8.20108 25.172 3.51471 20.4857C-1.17158 15.7994 -1.17158 8.2014 3.51475 3.51508C8.20103 -1.1712 15.0611 -0.43334 19.7474 4.25299C24.4337 8.93926 25.1716 15.7994 20.4853 20.4857Z" fill="black"/>
<path d="M3.51465 3.51462C8.20093 -1.17166 15.7989 -1.17156 20.4852 3.51467C25.1715 8.20095 25.1715 15.7989 20.4852 20.4852" fill="#A2001D"/>
<path d="M9.17152 16.1739L9.36577 16.7718H9.99441L9.48582 17.1412L9.68012 17.7391L9.17152 17.3696L8.66293 17.7391L8.85718 17.1412L8.34863 16.7718H8.97723L9.17152 16.1739Z" fill="#F0F0F0"/>
<path d="M7.56483 10.435L7.88869 11.4315H8.93635L8.08871 12.0473L8.41247 13.0437L7.56483 12.4279L6.71724 13.0437L7.04105 12.0473L6.19336 11.4315H7.24111L7.56483 10.435Z" fill="#F0F0F0"/>
<path d="M7.56483 17.7388L7.8886 18.7352H8.93635L8.08861 19.351L8.41247 20.3475L7.56483 19.7316L6.71724 20.3475L7.04095 19.351L6.19336 18.7352H7.24097L7.56483 17.7388Z" fill="#F0F0F0"/>
<path d="M10.6292 13.0439L10.9531 14.0404H12.0008L11.1531 14.6562L11.4769 15.6526L10.6292 15.0367L9.78164 15.6526L10.1055 14.6562L9.25781 14.0404H10.3055L10.6292 13.0439Z" fill="#F0F0F0"/>
<path d="M4.50233 13.0439L4.82619 14.0404H5.8738L5.02621 14.6562L5.34993 15.6526L4.50233 15.0367L3.65469 15.6526L3.97855 14.6562L3.13086 14.0404H4.17856L4.50233 13.0439Z" fill="#F0F0F0"/>
<path d="M20.0879 8.88631C19.5516 8.35002 18.8547 8.03319 18.1059 7.97877L20.3475 6.23535C19.4547 5.34261 18.2582 4.93944 17.0906 5.02471C16.9509 4.52239 16.6844 4.04792 16.2894 3.65291L15.4039 5.42375C15.3459 5.31791 15.2723 5.2183 15.1826 5.12863C14.6732 4.61924 13.8473 4.61924 13.338 5.12863C12.8286 5.63802 12.8285 6.46386 13.338 6.97325C13.4276 7.06292 13.5273 7.13647 13.6331 7.1946L11.8623 8.08002C12.2574 8.47517 12.7322 8.74185 13.2348 8.88153C13.1493 10.0491 13.552 11.2454 14.4448 12.1382L16.4032 9.62019C16.5506 9.47511 16.7451 9.395 16.9521 9.395C17.1612 9.395 17.3577 9.47638 17.5055 9.62427C17.6533 9.77206 17.7348 9.96861 17.7348 10.1776C17.7348 10.3867 17.6533 10.5832 17.5055 10.731L18.2434 11.4689C18.5883 11.124 18.7782 10.6655 18.7782 10.1777C18.7782 9.77858 18.6509 9.39917 18.4159 9.08549C18.7584 9.17694 19.082 9.3561 19.3502 9.62427C20.1639 10.438 20.1639 11.762 19.3502 12.5757L20.0881 13.3136C20.6793 12.7223 21.0049 11.9362 21.0049 11.1C21.0048 10.2637 20.6791 9.4776 20.0879 8.88631Z" fill="#FFDA44"/>
</g>
<defs>
<clipPath id="clip0_1201_2374">
<rect width="24" height="24" fill="white"/>
</clipPath>
</defs>
</svg>
