<svg width="24" height="24" viewBox="0 0 24 24" fill="none" xmlns="http://www.w3.org/2000/svg">
<g clip-path="url(#clip0_1201_2404)">
<path d="M24 12C24 18.6274 18.6274 24 12 24C5.37262 24 0 18.6274 0 12C0 12.0029 12 0.0013125 12 0C18.6274 0 24 5.37262 24 12Z" fill="#0052B4"/>
<path d="M11.9678 12.0006H11.9999C11.9999 11.9898 11.9999 11.9793 11.9999 11.9685C11.9892 11.9792 11.9785 11.9899 11.9678 12.0006Z" fill="#F0F0F0"/>
<path d="M12 6.26103C12 4.14954 12 2.76603 12 0.000167847H11.998C5.37145 0.00129285 0 5.3734 0 12.0002H6.26086V8.47465L9.78637 12.0002H11.9679C11.9786 11.9895 11.9893 11.9788 12 11.9681C12 11.1596 12 10.4382 12 9.78664L8.47443 6.26103H12Z" fill="#F0F0F0"/>
<path d="M6.07124 1.56503C4.19441 2.63374 2.63409 4.19402 1.56543 6.07085V11.9998H4.69588V4.69558V4.69549H12.0002C12.0002 3.70816 12.0002 2.76757 12.0002 1.56503H6.07124Z" fill="#D80027"/>
<path d="M12.0009 10.5247L7.73734 6.26131H6.26172V6.2614L12.0008 12.0004H12.0009C12.0009 12.0004 12.0009 10.9829 12.0009 10.5247Z" fill="#D80027"/>
<path d="M18.783 7.30388L17.2178 7.82564L15.6526 7.30388L15.1309 5.99953L15.6526 4.69519H18.783L18.2613 5.99953L18.783 7.30388Z" fill="#ACABB1"/>
<path d="M13.5654 7.30391V13.043C13.5654 15.8386 17.2176 16.6952 17.2176 16.6952C17.2176 16.6952 20.8698 15.8386 20.8698 13.043V7.30391H13.5654Z" fill="#338AF3"/>
<path d="M13.8945 14.4023C14.7923 16.1258 17.2175 16.6948 17.2175 16.6948C17.2175 16.6948 19.6427 16.1258 20.5405 14.4023L17.2175 8.86879L13.8945 14.4023Z" fill="#6DA544"/>
<path d="M20.8698 12.985L17.2176 7.30391L13.5654 12.9851V13.043C13.5654 13.5604 13.6908 14.0113 13.8946 14.4027L17.2176 9.23352L20.5406 14.4026C20.7444 14.0112 20.8698 13.5604 20.8698 13.043V12.985Z" fill="#FFDA44"/>
</g>
<defs>
<clipPath id="clip0_1201_2404">
<rect width="24" height="24" fill="white"/>
</clipPath>
</defs>
</svg>
