<svg width="24" height="24" viewBox="0 0 24 24" fill="none" xmlns="http://www.w3.org/2000/svg">
<g clip-path="url(#clip0_1201_2384)">
<path d="M12 24C18.6274 24 24 18.6274 24 12C24 5.37258 18.6274 0 12 0C5.37258 0 0 5.37258 0 12C0 18.6274 5.37258 24 12 24Z" fill="#F0F0F0"/>
<path d="M12.0007 -4.57764e-05C7.24316 -4.57764e-05 3.13241 2.76863 1.19141 6.78258H22.8099C20.869 2.76863 16.7582 -4.57764e-05 12.0007 -4.57764e-05Z" fill="#D80027"/>
<path d="M12.0007 24.0008C16.7582 24.0008 20.869 21.2321 22.81 17.2181H1.19141C3.13241 21.2321 7.24316 24.0008 12.0007 24.0008Z" fill="#0052B4"/>
<path d="M14.9514 8.52663L13.8446 9.63339C14.3167 10.1055 14.6088 10.7576 14.6088 11.478C14.6088 12.9188 13.4408 14.0867 12.0001 14.0867C10.5594 14.0867 9.39138 12.9187 9.39138 11.478C9.39138 10.7576 9.68341 10.1055 10.1555 9.63339L9.04872 8.52663C8.29333 9.28188 7.82617 10.3254 7.82617 11.478C7.82617 13.7832 9.69489 15.6519 12.0001 15.6519C14.3052 15.6519 16.174 13.7832 16.174 11.478C16.1739 10.3254 15.7068 9.28188 14.9514 8.52663Z" fill="#6DA544"/>
<path d="M12.0003 9.91263L12.3888 11.1084H13.6461L12.6289 11.8473L13.0175 13.0431L12.0003 12.3041L10.9831 13.0431L11.3716 11.8473L10.3545 11.1084H11.6117L12.0003 9.91263Z" fill="#FFDA44"/>
</g>
<defs>
<clipPath id="clip0_1201_2384">
<rect width="24" height="24" fill="white"/>
</clipPath>
</defs>
</svg>
