<svg width="24" height="24" viewBox="0 0 24 24" fill="none" xmlns="http://www.w3.org/2000/svg">
<g clip-path="url(#clip0_1201_2431)">
<path d="M12 24C18.6274 24 24 18.6274 24 12C24 5.37258 18.6274 0 12 0C5.37258 0 0 5.37258 0 12C0 18.6274 5.37258 24 12 24Z" fill="#F0F0F0"/>
<path d="M23.9997 12C23.9997 5.37258 18.627 -4.57764e-05 11.9997 -4.57764e-05C9.65216 -4.57764e-05 7.46244 0.67472 5.61284 1.83984L8.24314 2.95739L4.69531 4.4648L8.24314 5.97216L4.69531 7.47947L8.24314 8.98674L4.69531 10.4938L8.24314 12.0008L4.69531 13.5081L8.24314 15.0153L4.69531 16.5224L8.24314 18.0296L4.69531 19.5369L8.24314 21.044L5.61402 22.161C7.46338 23.3255 9.65263 24 11.9997 24C18.627 24 23.9997 18.6273 23.9997 12Z" fill="#751A46"/>
</g>
<defs>
<clipPath id="clip0_1201_2431">
<rect width="24" height="24" fill="white"/>
</clipPath>
</defs>
</svg>
