<svg width="24" height="24" viewBox="0 0 24 24" fill="none" xmlns="http://www.w3.org/2000/svg">
<g clip-path="url(#clip0_1201_2462)">
<path d="M0 11.999C0 14.0779 0.528891 16.0333 1.45908 17.7382L12 18.7816L22.5409 17.7382C23.4711 16.0333 24 14.0779 24 11.999L12 10.9555L0 11.999Z" fill="#FFDA44"/>
<path d="M22.5409 6.26086C20.5057 2.53073 16.5485 0 12 0C7.45148 0 3.49434 2.53073 1.45908 6.26086C0.528891 7.96575 0 9.92109 0 12H24C24 9.92109 23.4711 7.96575 22.5409 6.26086Z" fill="#338AF3"/>
<path d="M11.9999 23.9991C16.5484 23.9991 20.5056 21.4684 22.5408 17.7382H1.45898C3.49425 21.4684 7.45139 23.9991 11.9999 23.9991Z" fill="#496E2D"/>
<path d="M13.5654 7.02247L15.031 7.71186L14.2506 9.13123L15.842 8.82682L16.0437 10.4344L17.1521 9.25203L18.2606 10.4344L18.4622 8.82682L20.0536 9.13114L19.2732 7.71181L20.7387 7.02247L19.2732 6.33317L20.0536 4.91379L18.4622 5.2182L18.2605 3.61062L17.1521 4.793L16.0436 3.61062L15.842 5.2182L14.2506 4.91379L15.031 6.33322L13.5654 7.02247Z" fill="#FFDA44"/>
</g>
<defs>
<clipPath id="clip0_1201_2462">
<rect width="24" height="24" fill="white"/>
</clipPath>
</defs>
</svg>
