<svg width="24" height="24" viewBox="0 0 24 24" fill="none" xmlns="http://www.w3.org/2000/svg">
<g clip-path="url(#clip0_1201_2600)">
<path d="M20.4863 20.4851C24.9868 15.9846 25.1645 8.79934 21.0213 4.08565L12.0007 11.9994L4.08691 21.0201C8.80061 25.1633 15.9858 24.9856 20.4863 20.4851Z" fill="#496E2D"/>
<path d="M3.51438 3.51437C8.01488 -0.986137 15.2001 -1.16384 19.9138 2.97939L12 12.0001L2.97944 19.9138C-1.16383 15.2001 -0.986083 8.01488 3.51438 3.51437Z" fill="#0052B4"/>
<path d="M19.9139 2.98016L2.97949 19.9146C3.15068 20.1093 3.32843 20.3004 3.51448 20.4864C3.70048 20.6723 3.89158 20.8501 4.0864 21.0214L21.0207 4.08697C20.8495 3.89216 20.6717 3.7011 20.4856 3.51505C20.2997 3.32915 20.1086 3.15135 19.9139 2.98016Z" fill="#FFDA44"/>
<path d="M5.05619 4.17441L5.31526 4.97161H6.15343L5.47534 5.46422L5.73433 6.26142L5.05619 5.76872L4.37805 6.26142L4.63712 5.46422L3.95898 4.97161H4.7972L5.05619 4.17441Z" fill="#F0F0F0"/>
<path d="M9.33744 4.1736L9.59652 4.9708H10.4346L9.75655 5.46341L10.0156 6.26061L9.33744 5.76791L8.6593 6.26061L8.91837 5.46341L8.24023 4.9708H9.07841L9.33744 4.1736Z" fill="#F0F0F0"/>
<path d="M5.05619 8.34778L5.31526 9.14498H6.15343L5.47534 9.63763L5.73433 10.4348L5.05619 9.94213L4.37805 10.4348L4.63712 9.63763L3.95898 9.14498H4.7972L5.05619 8.34778Z" fill="#F0F0F0"/>
<path d="M9.33744 8.34778L9.59652 9.14498H10.4346L9.75655 9.63763L10.0156 10.4348L9.33744 9.94213L8.6593 10.4348L8.91837 9.63763L8.24023 9.14498H9.07841L9.33744 8.34778Z" fill="#F0F0F0"/>
<path d="M7.19686 6.26167L7.45593 7.05887H8.29406L7.61597 7.55153L7.875 8.34873L7.19686 7.85603L6.51872 8.34873L6.77775 7.55153L6.09961 7.05887H6.93783L7.19686 6.26167Z" fill="#F0F0F0"/>
</g>
<defs>
<clipPath id="clip0_1201_2600">
<rect width="24" height="24" fill="white"/>
</clipPath>
</defs>
</svg>
