<svg width="24" height="24" viewBox="0 0 24 24" fill="none" xmlns="http://www.w3.org/2000/svg">
<g clip-path="url(#clip0_1201_2552)">
<path d="M12 24C18.6274 24 24 18.6274 24 12C24 5.37258 18.6274 0 12 0C5.37258 0 0 5.37258 0 12C0 18.6274 5.37258 24 12 24Z" fill="#F0F0F0"/>
<path d="M0 12C0 5.37262 5.37262 0 12 0C18.6274 0 24 5.37262 24 12" fill="#D80027"/>
<path d="M7.30353 6.26097C7.30353 4.51262 8.53226 3.05209 10.1731 2.69373C9.92089 2.6387 9.65928 2.60884 9.39045 2.60884C7.37337 2.60884 5.73828 4.24393 5.73828 6.26101C5.73828 8.27809 7.37337 9.91318 9.39045 9.91318C9.65919 9.91318 9.92084 9.88333 10.1731 9.82825C8.53226 9.46989 7.30353 8.00936 7.30353 6.26097Z" fill="#F0F0F0"/>
<path d="M11.9995 2.86998L12.2585 3.66709H13.0967L12.4186 4.15979L12.6776 4.9569L11.9995 4.46429L11.3214 4.9569L11.5804 4.15979L10.9023 3.66709H11.7405L11.9995 2.86998Z" fill="#F0F0F0"/>
<path d="M9.96639 4.43466L10.2254 5.23182H11.0635L10.3855 5.72447L10.6445 6.52158L9.96639 6.02897L9.2882 6.52158L9.54728 5.72447L8.86914 5.23182H9.70731L9.96639 4.43466Z" fill="#F0F0F0"/>
<path d="M14.0327 4.43466L14.2918 5.23182H15.1299L14.4518 5.72447L14.7108 6.52158L14.0327 6.02897L13.3546 6.52158L13.6136 5.72447L12.9355 5.23182H13.7737L14.0327 4.43466Z" fill="#F0F0F0"/>
<path d="M13.2505 6.78336L13.5095 7.58051H14.3476L13.6695 8.07317L13.9286 8.87028L13.2505 8.37767L12.5724 8.87028L12.8314 8.07317L12.1533 7.58051H12.9914L13.2505 6.78336Z" fill="#F0F0F0"/>
<path d="M10.7486 6.78336L11.0076 7.58051H11.8458L11.1676 8.07317L11.4267 8.87028L10.7486 8.37767L10.0704 8.87028L10.3295 8.07317L9.65137 7.58051H10.4895L10.7486 6.78336Z" fill="#F0F0F0"/>
</g>
<defs>
<clipPath id="clip0_1201_2552">
<rect width="24" height="24" fill="white"/>
</clipPath>
</defs>
</svg>
