<svg width="24" height="24" viewBox="0 0 24 24" fill="none" xmlns="http://www.w3.org/2000/svg">
<g clip-path="url(#clip0_1201_2526)">
<path d="M17.2175 1.19084C15.6399 0.427997 13.87 0.00012207 12.0001 0.00012207C10.1303 0.00012207 8.36037 0.427997 6.78274 1.19084L5.73926 12.0001L6.78274 22.8094C8.36037 23.5722 10.1303 24.0001 12.0001 24.0001C13.87 24.0001 15.6399 23.5722 17.2175 22.8094L18.261 12.0001L17.2175 1.19084Z" fill="#FFDA44"/>
<path d="M12 7.82599L13.0359 11.0144H16.3888L13.6764 12.9852L14.7124 16.1738L12 14.2031L9.28753 16.1738L10.3237 12.9852L7.61133 11.0144H10.964L12 7.82599Z" fill="#496E2D"/>
<path d="M6.78262 1.19077C2.76872 3.13172 0 7.24214 0 11.9996C0 16.7571 2.76872 20.8675 6.78262 22.8085V1.19077Z" fill="#496E2D"/>
<path d="M17.2178 1.19144V22.8092C21.2317 20.8682 24.0004 16.7578 24.0004 12.0003C24.0004 7.24281 21.2317 3.13239 17.2178 1.19144Z" fill="#D80027"/>
</g>
<defs>
<clipPath id="clip0_1201_2526">
<rect width="24" height="24" fill="white"/>
</clipPath>
</defs>
</svg>
