<svg width="24" height="24" viewBox="0 0 24 24" fill="none" xmlns="http://www.w3.org/2000/svg">
<g clip-path="url(#clip0_1201_2823)">
<path d="M24 12C24 18.6274 18.6274 24 12 24C5.37262 24 0 18.6274 0 12C0 12.0029 12 0.0013125 12 0C18.6274 0 24 5.37262 24 12Z" fill="#0052B4"/>
<path d="M11.9688 11.9996H12.0009C12.0009 11.9888 12.0009 11.9783 12.0009 11.9674C11.9902 11.9782 11.9795 11.9889 11.9688 11.9996Z" fill="#F0F0F0"/>
<path d="M12.001 6.26116C12.001 4.14968 12.001 2.76616 12.001 0.000305176H11.999C5.37243 0.00143018 0.000976562 5.37354 0.000976562 12.0003H6.26184V8.47479L9.78735 12.0003H11.9689C11.9796 11.9896 11.9903 11.9789 12.001 11.9682C12.001 11.1597 12.001 10.4384 12.001 9.78677L8.47541 6.26116H12.001Z" fill="#F0F0F0"/>
<path d="M6.07124 1.56538C4.19441 2.63409 2.63409 4.19437 1.56543 6.0712V12.0002H4.69588V4.69593V4.69584H12.0002C12.0002 3.70851 12.0002 2.76792 12.0002 1.56538H6.07124Z" fill="#D80027"/>
<path d="M12.0009 10.5241L7.73734 6.26065H6.26172V6.26074L12.0008 11.9997H12.0009C12.0009 11.9997 12.0009 10.9822 12.0009 10.5241Z" fill="#D80027"/>
<path d="M13.5654 6.26042V11.9995C13.5654 14.7951 17.2176 15.6517 17.2176 15.6517C17.2176 15.6517 20.8698 14.7951 20.8698 11.9995V6.26042H13.5654Z" fill="#FFDA44"/>
<path d="M16.6954 8.34775C16.6954 8.92407 16.2282 10.4347 15.6519 10.4347C15.0756 10.4347 14.6084 8.92407 14.6084 8.34775C14.6084 7.77142 15.6519 7.30426 15.6519 7.30426C15.6519 7.30426 16.6954 7.77142 16.6954 8.34775Z" fill="#FF9811"/>
<path d="M19.4642 9.48423C19.6326 9.07337 19.7636 8.47281 19.7636 8.17384C19.7636 7.69356 19.1374 7.30426 19.1374 7.30426C19.1374 7.30426 18.5113 7.6936 18.5113 8.17384C18.5113 8.47281 18.6423 9.07337 18.8107 9.48423L18.4492 10.3003C18.6617 10.3867 18.8939 10.4347 19.1374 10.4347C19.3809 10.4347 19.6131 10.3867 19.8256 10.3003L19.4642 9.48423Z" fill="#A2001D"/>
<path d="M16.4348 12C16.4348 12 15.9131 13.0435 15.9131 14.0869C15.9131 14.0869 17.4783 14.0869 18.5218 14.0869C18.5217 13.0435 18 12 18 12L17.2174 11.4783L16.4348 12Z" fill="#6DA544"/>
<path d="M18.0008 12.0005V11.7396C18.0008 11.3075 17.6504 10.957 17.2182 10.957C16.786 10.957 16.4355 11.3074 16.4355 11.7396V12.0005H18.0008Z" fill="#D80027"/>
</g>
<defs>
<clipPath id="clip0_1201_2823">
<rect width="24" height="24" fill="white"/>
</clipPath>
</defs>
</svg>
