<svg width="24" height="24" viewBox="0 0 24 24" fill="none" xmlns="http://www.w3.org/2000/svg">
<g clip-path="url(#clip0_1201_2765)">
<path d="M12 24C18.6274 24 24 18.6274 24 12C24 5.37258 18.6274 0 12 0C5.37258 0 0 5.37258 0 12C0 18.6274 5.37258 24 12 24Z" fill="#FFDA44"/>
<path d="M19.3043 5.73914C19.1967 6.25641 19.1478 6.80733 19.1478 7.35652C19.1478 10.5222 21.035 13.2621 23.7394 14.4955C23.9097 13.6904 24 12.8558 24 12C24 5.37262 18.6274 0 12 0C5.37262 0 0 5.37262 0 12C0 18.6274 5.37262 24 12 24C16.1101 24 19.7371 21.9332 21.8998 18.7826H6.78263V17.2174H22.8093C22.9733 16.8782 23.1215 16.53 23.2537 16.1739H6.78263L19.3043 5.73914Z" fill="#0052B4"/>
<path d="M8.81498 6.26117L9.07401 7.05833H9.91214L9.23409 7.55103L9.49312 8.34814L8.81498 7.85553L8.13693 8.34814L8.39592 7.55103L7.71777 7.05833H8.55595L8.81498 6.26117Z" fill="#F0F0F0"/>
<path d="M5.41146 12L5.73528 12.9966H6.78294L5.93529 13.6123L6.25911 14.6087L5.41146 13.9929L4.56387 14.6087L4.88763 13.6123L4.04004 12.9966H5.0877L5.41146 12Z" fill="#F0F0F0"/>
<path d="M5.41146 3.65245L5.73528 4.64897H6.78294L5.93529 5.26467L6.25911 6.26114L5.41146 5.64529L4.56387 6.26114L4.88763 5.26467L4.04004 4.64897H5.0877L5.41146 3.65245Z" fill="#F0F0F0"/>
<path d="M2.80209 8.34749L3.1259 9.344H4.17351L3.32591 9.95971L3.64973 10.9562L2.80209 10.3403L1.95449 10.9562L2.27826 9.95971L1.43066 9.344H2.47827L2.80209 8.34749Z" fill="#F0F0F0"/>
</g>
<defs>
<clipPath id="clip0_1201_2765">
<rect width="24" height="24" fill="white"/>
</clipPath>
</defs>
</svg>
