<svg width="24" height="24" viewBox="0 0 24 24" fill="none" xmlns="http://www.w3.org/2000/svg">
<g clip-path="url(#clip0_1201_2795)">
<path d="M11.9995 -0.000640869C11.1035 -0.000640869 10.2308 0.098406 9.39086 0.284594L8.86914 11.9993L9.39086 23.7141C10.2308 23.9003 11.1036 23.9994 11.9995 23.9994C18.6269 23.9994 23.9995 18.6267 23.9995 11.9993C23.9995 5.37194 18.6269 -0.000640869 11.9995 -0.000640869Z" fill="#496E2D"/>
<path d="M3.13041 3.91702C1.18584 6.04965 0 8.88605 0 11.9996C0 15.1131 1.18589 17.9495 3.13045 20.0822L3.65217 11.9996L3.13041 3.91702Z" fill="#496E2D"/>
<path d="M17.5512 9.0516C18.1416 7.40601 17.4783 5.61627 16.0548 4.7249C16.3109 4.75823 16.5672 4.81851 16.8201 4.90921C18.7187 5.5904 19.7056 7.68159 19.0244 9.58012C18.3432 11.4788 16.252 12.4656 14.3535 11.7844C14.1005 11.6937 13.8643 11.5772 13.6455 11.4402C15.311 11.6571 16.9608 10.6972 17.5512 9.0516Z" fill="#F0F0F0"/>
<path d="M14.2766 4.27428L13.7636 4.93718L12.9747 4.6541L13.4465 5.34682L12.9336 6.00963L13.7382 5.77498L14.2101 6.4676L14.2355 5.62985L15.0401 5.39515L14.2513 5.11217L14.2766 4.27428Z" fill="#F0F0F0"/>
<path d="M15.6624 6.4353L15.1493 7.09816L14.3604 6.81508L14.8323 7.5078L14.3193 8.17062L15.1239 7.93587L15.5959 8.62863L15.6213 7.79083L16.4259 7.55608L15.637 7.27305L15.6624 6.4353Z" fill="#F0F0F0"/>
<path d="M11.8332 5.06038L11.3202 5.72319L10.5313 5.44021L11.0032 6.13288L10.4902 6.79574L11.2948 6.56104L11.7667 7.25371L11.7921 6.41596L12.5967 6.18125L11.8079 5.89818L11.8332 5.06038Z" fill="#F0F0F0"/>
<path d="M11.7776 7.53455L11.2646 8.19741L10.4757 7.91437L10.9477 8.60709L10.4346 9.26991L11.2393 9.03525L11.7112 9.72787L11.7365 8.89012L12.5412 8.65542L11.7522 8.37234L11.7776 7.53455Z" fill="#F0F0F0"/>
<path d="M14.1321 8.37999L13.6191 9.0428L12.8302 8.75977L13.3022 9.45249L12.7891 10.1153L13.5938 9.8806L14.0657 10.5733L14.091 9.73547L14.8957 9.50082L14.1067 9.21779L14.1321 8.37999Z" fill="#F0F0F0"/>
<path d="M3.12988 3.91747V20.0826C4.76488 21.8758 6.9366 23.1707 9.39074 23.7147V0.285309C6.93655 0.82934 4.76493 2.12426 3.12988 3.91747Z" fill="#D80027"/>
<path d="M5.51985 6.31758L4.47168 5.53673V4.4325L5.51985 3.6517H7.00228L8.05045 4.4325V5.53673L7.00228 6.31758H5.51985Z" fill="#F0F0F0"/>
<path d="M6.26108 3.6517H5.51985L4.47168 4.4325V4.97236H6.26108V3.6517Z" fill="#FF9811"/>
<path d="M6.26074 6.31669H7.00193L8.0501 5.53585V4.97255H6.26074V6.31669Z" fill="#FF9811"/>
<path d="M5.51985 20.3484L4.47168 19.5676V18.4634L5.51985 17.6826H7.00228L8.05045 18.4634V19.5676L7.00228 20.3484H5.51985Z" fill="#F0F0F0"/>
<path d="M6.26108 17.6826H5.51985L4.47168 18.4634V19.0033H6.26108V17.6826Z" fill="#FF9811"/>
<path d="M6.26074 20.3493H7.00193L8.0501 19.5684V19.0052H6.26074V20.3493Z" fill="#FF9811"/>
<path d="M5.51985 13.3323L4.47168 12.5515V11.4473L5.51985 10.6665H7.00227L8.05044 11.4473V12.5515L7.00227 13.3323H5.51985Z" fill="#496E2D"/>
<path d="M8.0867 15.0514H7.63014V14.5949H6.82787L6.26059 14.0276L5.69335 14.5949H4.89109V15.0514H4.43457V15.9644H4.89109V16.4209H5.69331L6.26063 16.9883L6.82787 16.4209H7.63014V15.9644H8.0867V15.0514Z" fill="#496E2D"/>
<path d="M8.0867 8.03607H7.63014V7.5795H6.82787L6.26059 7.01222L5.69335 7.5795H4.89109V8.03607H4.43457V8.9491H4.89109V9.40561H5.69331L6.26063 9.97299L6.82787 9.40561H7.63014V8.9491H8.0867V8.03607Z" fill="#496E2D"/>
<path d="M6.78274 11.4792H5.73926V12.5226H6.78274V11.4792Z" fill="#D80027"/>
<path d="M6.26097 9.01484C6.54911 9.01484 6.78269 8.78126 6.78269 8.49312C6.78269 8.20499 6.54911 7.97141 6.26097 7.97141C5.97284 7.97141 5.73926 8.20499 5.73926 8.49312C5.73926 8.78126 5.97284 9.01484 6.26097 9.01484Z" fill="#D80027"/>
<path d="M6.26097 16.0308C6.54911 16.0308 6.78269 15.7972 6.78269 15.5091C6.78269 15.2209 6.54911 14.9874 6.26097 14.9874C5.97284 14.9874 5.73926 15.2209 5.73926 15.5091C5.73926 15.7972 5.97284 16.0308 6.26097 16.0308Z" fill="#D80027"/>
</g>
<defs>
<clipPath id="clip0_1201_2795">
<rect width="24" height="24" fill="white"/>
</clipPath>
</defs>
</svg>
