<svg width="24" height="24" viewBox="0 0 24 24" fill="none" xmlns="http://www.w3.org/2000/svg">
<g clip-path="url(#clip0_1201_2837)">
<path d="M24 12C24 18.6274 18.6274 24 12 24C5.37263 24 0 18.6274 0 12C0 12.0029 12 0.0013125 12 0C18.6274 0 24 5.37262 24 12Z" fill="#338AF3"/>
<path d="M5.73926 12.0011H9.78654L6.26098 7.82723L5.73926 9.39244V12.0011Z" fill="#0052B4"/>
<path d="M12.0001 9.78668L7.82617 5.73936H12.0001L12.0001 9.78668Z" fill="#0052B4"/>
<path d="M11.9678 11.9996H11.9999C11.9999 11.9888 11.9999 11.9783 11.9999 11.9674C11.9892 11.9782 11.9785 11.9889 11.9678 11.9996Z" fill="#F0F0F0"/>
<path d="M12 6.26116C12 4.14968 12 2.76612 12 0.000305176H11.998C5.3715 0.00143018 0 5.37354 0 12.0003H6.26091V8.47479L9.78642 12.0003H11.968C11.9787 11.9896 11.9894 11.9789 12.0001 11.9682C12.0001 11.1597 12.0001 10.4384 12.0001 9.78677L8.47444 6.26116H12Z" fill="#F0F0F0"/>
<path d="M6.07124 1.56538C4.19441 2.63409 2.63413 4.19437 1.56543 6.0712V12.0002H4.69588V4.69593V4.69584H12.0002C12.0002 3.70851 12.0002 2.76792 12.0002 1.56538H6.07124Z" fill="#D80027"/>
<path d="M12.0009 10.5241L7.73735 6.26065H6.26172V6.26074L12.0008 11.9997H12.0009C12.0009 11.9997 12.0009 10.9822 12.0009 10.5241Z" fill="#D80027"/>
<path d="M13.0972 19.8252L13.3562 20.6223H14.1944L13.5163 21.115L13.7753 21.9121L13.0972 21.4195L12.4191 21.9121L12.6781 21.115L12 20.6223H12.8381L13.0972 19.8252Z" fill="#FFDA44"/>
<path d="M19.773 14.6093L20.032 15.4065H20.8701L20.1921 15.8992L20.4512 16.6963L19.773 16.2037L19.0949 16.6963L19.354 15.8992L18.6758 15.4065H19.5139L19.773 14.6093Z" fill="#FFDA44"/>
<path d="M21.4448 6.78255L21.7038 7.5797H22.542L21.864 8.07236L22.123 8.86947L21.4448 8.37686L20.7668 8.86947L21.0258 8.07236L20.3477 7.5797H21.1858L21.4448 6.78255Z" fill="#FFDA44"/>
<path d="M21.8599 12.5214L22.1189 13.3186H22.9571L22.279 13.8113L22.538 14.6084L21.8599 14.1158L21.1819 14.6084L21.4409 13.8113L20.7627 13.3186H21.6009L21.8599 12.5214Z" fill="#FFDA44"/>
<path d="M14.299 17.9513L15.0459 18.3319L15.6386 17.7393L15.5075 18.567L16.2543 18.9475L15.4264 19.0787L15.2953 19.9066L14.9148 19.1597L14.0869 19.2909L14.6796 18.6983L14.299 17.9513Z" fill="#FFDA44"/>
<path d="M14.299 14.8214L15.0459 15.2019L15.6386 14.6093L15.5075 15.4371L16.2543 15.8176L15.4264 15.9487L15.2953 16.7766L14.9148 16.0298L14.0869 16.1609L14.6796 15.5683L14.299 14.8214Z" fill="#FFDA44"/>
<path d="M16.9084 16.8271L17.6553 17.2077L18.2479 16.615L18.1169 17.4428L18.8637 17.8233L18.0357 17.9545L17.9046 18.7824L17.5242 18.0355L16.6963 18.1667L17.2889 17.5741L16.9084 16.8271Z" fill="#FFDA44"/>
<path d="M16.9084 10.1248L17.6553 10.5053L18.2479 9.9127L18.1169 10.7405L18.8637 11.121L18.0357 11.2521L17.9046 12.08L17.5242 11.3332L16.6963 11.4643L17.2889 10.8717L16.9084 10.1248Z" fill="#FFDA44"/>
<path d="M19.4367 10.0444L20.1836 10.425L20.7763 9.83233L20.6451 10.6601L21.392 11.0406L20.5641 11.1718L20.4329 11.9996L20.0525 11.2528L19.2246 11.384L19.8172 10.7913L19.4367 10.0444Z" fill="#FFDA44"/>
</g>
<defs>
<clipPath id="clip0_1201_2837">
<rect width="24" height="24" fill="white"/>
</clipPath>
</defs>
</svg>
