<svg width="24" height="24" viewBox="0 0 24 24" fill="none" xmlns="http://www.w3.org/2000/svg">
<g clip-path="url(#clip0_1201_2910)">
<path d="M0.566625 8.34789C0.199031 9.49952 -4.68667e-05 10.7264 8.27601e-09 11.9999C-4.68667e-05 13.2735 0.199078 14.5005 0.566672 15.6521L12 16.1739L23.4333 15.6522C23.8009 14.5005 24.0001 13.2735 24.0001 12C24 10.7264 23.8009 9.49952 23.4333 8.34785L12 7.82613L0.566625 8.34789Z" fill="#F0F0F0"/>
<path d="M23.4332 8.34784L11.9999 7.82613L0.5665 8.34784C0.457563 8.68928 0.363766 9.03742 0.285156 9.39133H23.7144C23.6359 9.03738 23.5421 8.68919 23.4332 8.34784Z" fill="#D80027"/>
<path d="M0.285156 14.609C0.363672 14.9629 0.457469 15.311 0.566406 15.6525L0.567531 15.6525L11.9997 16.1742L23.433 15.6525C23.542 15.3111 23.6358 14.9629 23.7143 14.609H0.285156Z" fill="#D80027"/>
<path d="M12.0007 24.0007C17.3545 24.0007 21.8888 20.4943 23.434 15.6529H0.567383C2.11262 20.4943 6.64693 24.0007 12.0007 24.0007Z" fill="#6DA544"/>
<path d="M11.9997 -0.000816345C6.64595 -0.00076947 2.11173 3.50562 0.566406 8.34701L23.433 8.34706C21.8879 3.50557 17.3536 -0.00086322 11.9997 -0.000816345Z" fill="#338AF3"/>
<path d="M5.48376 4.95627C5.48376 3.83235 6.27365 2.89344 7.32847 2.6631C7.16638 2.62766 6.99815 2.60849 6.82536 2.60849C5.52871 2.60849 4.47754 3.65962 4.47754 4.95632C4.47754 6.25302 5.52862 7.30415 6.82536 7.30415C6.99815 7.30415 7.16633 7.28493 7.32847 7.24954C6.27369 7.0191 5.48376 6.0802 5.48376 4.95627Z" fill="#F0F0F0"/>
<path d="M8.71531 6.02245L8.87421 6.51159H9.38853L8.97246 6.81393L9.13137 7.30307L8.71531 7.00078L8.29915 7.30307L8.4581 6.81393L8.04199 6.51159H8.55631L8.71531 6.02245Z" fill="#F0F0F0"/>
<path d="M10.3578 6.02245L10.5167 6.51159H11.0311L10.6149 6.81393L10.7739 7.30307L10.3578 7.00078L9.94168 7.30307L10.1006 6.81393L9.68457 6.51159H10.1988L10.3578 6.02245Z" fill="#F0F0F0"/>
<path d="M11.9995 6.02245L12.1584 6.51159H12.6728L12.2566 6.81393L12.4156 7.30307L11.9995 7.00078L11.5833 7.30307L11.7423 6.81393L11.3262 6.51159H11.8405L11.9995 6.02245Z" fill="#F0F0F0"/>
<path d="M13.6411 6.02245L13.8 6.51159H14.3143L13.8982 6.81393L14.0572 7.30307L13.6411 7.00078L13.2249 7.30307L13.3839 6.81393L12.9678 6.51159H13.4821L13.6411 6.02245Z" fill="#F0F0F0"/>
<path d="M15.2826 6.02245L15.4415 6.51159H15.9559L15.5398 6.81393L15.6987 7.30307L15.2826 7.00078L14.8665 7.30307L15.0254 6.81393L14.6094 6.51159H15.1236L15.2826 6.02245Z" fill="#F0F0F0"/>
<path d="M10.3578 4.31516L10.5167 4.80426H11.0311L10.6149 5.10665L10.7739 5.59574L10.3578 5.29344L9.94168 5.59574L10.1006 5.10665L9.68457 4.80426H10.1988L10.3578 4.31516Z" fill="#F0F0F0"/>
<path d="M11.9995 4.31516L12.1584 4.80426H12.6728L12.2566 5.10665L12.4156 5.59574L11.9995 5.29344L11.5833 5.59574L11.7423 5.10665L11.3262 4.80426H11.8405L11.9995 4.31516Z" fill="#F0F0F0"/>
<path d="M13.6411 4.31516L13.8 4.80426H14.3143L13.8982 5.10665L14.0572 5.59574L13.6411 5.29344L13.2249 5.59574L13.3839 5.10665L12.9678 4.80426H13.4821L13.6411 4.31516Z" fill="#F0F0F0"/>
<path d="M15.2826 4.31516L15.4415 4.80426H15.9559L15.5398 5.10665L15.6987 5.59574L15.2826 5.29344L14.8665 5.59574L15.0254 5.10665L14.6094 4.80426H15.1236L15.2826 4.31516Z" fill="#F0F0F0"/>
<path d="M11.9995 2.60807L12.1584 3.09726H12.6728L12.2566 3.39956L12.4156 3.88875L11.9995 3.58645L11.5833 3.88875L11.7423 3.39956L11.3262 3.09726H11.8405L11.9995 2.60807Z" fill="#F0F0F0"/>
<path d="M13.6411 2.60807L13.8 3.09726H14.3143L13.8982 3.39956L14.0572 3.88875L13.6411 3.58645L13.2249 3.88875L13.3839 3.39956L12.9678 3.09726H13.4821L13.6411 2.60807Z" fill="#F0F0F0"/>
<path d="M15.2826 2.60807L15.4415 3.09726H15.9559L15.5398 3.39956L15.6987 3.88875L15.2826 3.58645L14.8665 3.88875L15.0254 3.39956L14.6094 3.09726H15.1236L15.2826 2.60807Z" fill="#F0F0F0"/>
</g>
<defs>
<clipPath id="clip0_1201_2910">
<rect width="24" height="24" fill="white"/>
</clipPath>
</defs>
</svg>
