<svg width="24" height="24" viewBox="0 0 24 24" fill="none" xmlns="http://www.w3.org/2000/svg">
<g clip-path="url(#clip0_1201_1292)">
<path d="M12 24C18.6274 24 24 18.6274 24 12C24 5.37258 18.6274 0 12 0C5.37258 0 0 5.37258 0 12C0 18.6274 5.37258 24 12 24Z" fill="#FCFCFC"/>
<path d="M14.0373 8.38355C14.0373 7.25799 13.1249 6.34552 11.9993 6.34552C10.8737 6.34552 9.96118 7.25799 9.96118 8.38355H5.47754C5.47754 9.49172 6.44288 10.3902 7.55105 10.3902H7.48431C7.48431 11.4984 8.38262 12.3969 9.49098 12.3969C9.49098 13.3782 10.1957 14.1935 11.1264 14.3678L11.1212 14.3795H12.8774L12.8722 14.3678C13.8029 14.1934 14.5076 13.3781 14.5076 12.3969C15.6159 12.3969 16.5143 11.4984 16.5143 10.3902H16.4474C17.5556 10.3902 18.521 9.49172 18.521 8.38355H14.0373Z" fill="#FFDA44"/>
<path d="M11.1035 14.1724L9.83984 17.0254C10.5066 17.2964 11.2354 17.4471 11.9995 17.4471C12.7636 17.4471 13.4923 17.2964 14.159 17.0254L12.8954 14.1724H11.1035Z" fill="#FFDA44"/>
<path d="M9.3916 9.38554V12.8961C9.3916 14.8928 12.0003 15.5047 12.0003 15.5047C12.0003 15.5047 14.609 14.8928 14.609 12.8961V9.38554H9.3916Z" fill="#F0F0F0"/>
<path d="M2.91024 12.0846L4.32113 16.0307L5.71735 12.0846H6.78292L4.74732 17.302H3.8949L1.84473 12.0846H2.91024Z" fill="#338AF3"/>
<path d="M19.3047 17.302V12.0846H20.3187V17.302H19.3047Z" fill="#338AF3"/>
<path d="M10.4346 10.5196V14.7737C10.7932 15.0377 11.1791 15.2192 11.4781 15.3354V10.5196H10.4346Z" fill="#D80027"/>
<path d="M13.565 10.5196V14.7737C13.2063 15.0376 12.8205 15.2192 12.5215 15.3354V10.5196H13.565Z" fill="#D80027"/>
<path d="M14.609 9.38554H9.3916V11.041H14.609V9.38554Z" fill="#0052B4"/>
</g>
<defs>
<clipPath id="clip0_1201_1292">
<rect width="24" height="24" fill="white"/>
</clipPath>
</defs>
</svg>
