<svg width="24" height="24" viewBox="0 0 24 24" fill="none" xmlns="http://www.w3.org/2000/svg">
<g clip-path="url(#clip0_1201_1323)">
<path d="M12 24C18.6274 24 24 18.6274 24 12C24 5.37258 18.6274 0 12 0C5.37258 0 0 5.37258 0 12C0 18.6274 5.37258 24 12 24Z" fill="#F0F0F0"/>
<path d="M22.8522 6.87251C22.2426 5.58467 21.4105 4.42297 20.4055 3.43648L12.0008 2.60919L3.5961 3.43653C3.56929 3.46283 3.54313 3.48973 3.5166 3.51631L6.87285 6.87256L12.0008 7.02917L22.8522 6.87251Z" fill="#FFDA44"/>
<path d="M3.51562 20.4854C3.55978 20.5295 3.60384 20.5737 3.64866 20.6172L12 21.3924L20.3512 20.6172C21.3665 19.6329 22.2088 18.4711 22.827 17.1812L7.30425 16.6967C5.96864 18.0324 4.42814 19.5728 3.51562 20.4854Z" fill="#FFDA44"/>
<path d="M23.8807 10.3082L9.91309 9.91314L12.0001 12.0001C11.3819 12.6182 10.4591 13.541 9.91309 14.0871L23.8734 13.7442C23.9564 13.1747 24.0001 12.5926 24.0001 12.0001C24.0001 11.4257 23.9588 10.861 23.8807 10.3082Z" fill="black"/>
<path d="M12.0004 0.000663757C8.7272 0.000663757 5.76067 1.31176 3.5957 3.4367H20.4051C18.2401 1.31176 15.2736 0.000663757 12.0004 0.000663757Z" fill="#6DA544"/>
<path d="M10.3071 10.3086H23.8797C23.7085 9.09548 23.3562 7.94076 22.8505 6.87253H6.87109L10.3071 10.3086Z" fill="#D80027"/>
<path d="M6.81934 17.1815H22.8266C23.3382 16.114 23.6961 14.9592 23.8729 13.7455H10.2554C8.92473 15.0761 7.79701 16.2038 6.81934 17.1815Z" fill="#D80027"/>
<path d="M11.9996 24.0005C15.246 24.0005 18.1907 22.7109 20.3508 20.6166H3.64844C5.80863 22.7109 8.75331 24.0005 11.9996 24.0005Z" fill="#6DA544"/>
<path d="M4.28504 2.80992C4.01827 3.03408 3.76088 3.26906 3.51465 3.5152L12 12.0005L3.51465 20.4858C3.76084 20.732 4.01827 20.967 4.28504 21.1911L13.4756 12.0005L4.28504 2.80992Z" fill="black"/>
<path d="M4.82467 8.8691L5.60163 11.2605H8.11624L6.08195 12.7385L6.85895 15.13L4.82467 13.652L2.79034 15.13L3.56744 12.7385L1.5332 11.2605H4.04767L4.82467 8.8691Z" fill="#D80027"/>
<path d="M6.96184 12.1947L4.93694 11.4773C4.93694 11.4773 4.78731 10.0737 4.77827 10.0262C4.70955 9.66414 4.39141 9.39034 4.00937 9.39034C3.57719 9.39034 3.22675 9.74073 3.22675 10.173C3.22675 10.2446 3.2372 10.3137 3.25525 10.3797L2.6875 10.9512C2.6875 10.9512 3.36184 10.9512 3.697 10.9512C3.697 11.999 2.91512 11.999 2.91512 13.0425L3.34886 14.086H5.95755L6.39236 13.0425H6.39217C6.43572 12.9424 6.46216 12.8391 6.47308 12.7359C6.84789 12.5844 6.96184 12.1947 6.96184 12.1947Z" fill="#FFDA44"/>
</g>
<defs>
<clipPath id="clip0_1201_1323">
<rect width="24" height="24" fill="white"/>
</clipPath>
</defs>
</svg>
